<?xml version="1.0" encoding="UTF-8"?><svg id="b" xmlns="http://www.w3.org/2000/svg" width="217.896" height="40.1" viewBox="0 0 217.896 40.1"><defs><style>.d,.e{fill:#004c95;}.f{fill:#dd1b1b;}.g,.h{fill:#231815;}.h,.e{fill-rule:evenodd;}</style></defs><g id="c"><path class="h" d="M66.061,22.473c-.415,0-.708-.274-1.019-.542-.329-.274-1.534-1.322-2.508-2.12-.397-.314-.668-.565-.668-1.09,0-.839.708-1.053,1.037-1.053.415,0,.627.15,1.827,1.094.726.588,1.452,1.194,2.098,1.887.208.233.311.547.311.693,0,.944-.83,1.13-1.078,1.13ZM66.327,17.062c-.185,0-.352-.018-.681-.292-1.06-.884-1.182-.966-2.368-1.91-.808-.629-.934-.734-.934-1.217,0-.501.397-.984.997-.984.392,0,1.101.542,1.619.962.663.529,1.683,1.345,2.035,1.764.208.274.289.419.289.711,0,.652-.496.966-.956.966ZM70.171,25.601v3.92c0,.884,0,1.094-.293,1.386-.226.233-.478.296-.744.296-.397,0-.686-.168-.893-.465-.144-.228-.144-.524-.144-1.217v-3.501l-5.066,1.007c-.541.105-.686.128-.871.128-.541,0-.956-.465-.956-1.007,0-.843.645-.966,1.435-1.135l5.459-1.112v-10.216c0-.857,0-1.071.289-1.381.208-.21.478-.296.749-.296.329,0,.663.128.889.483.149.21.149.501.149,1.194v9.796c.911-.187.934-.187,1.16-.187.853,0,.934.88.934,1.067,0,.82-.6.944-1.452,1.112l-.641.128ZM58.442,19.875c.812,1.235,1.931,2.58,2.368,3.041.289.337.559.629.559,1.112,0,.734-.6,1.048-1.037,1.048-.6,0-.871-.378-1.89-1.741v6.377c0,.798,0,.962-.081,1.153-.185.378-.6.501-.871.501-.934,0-.934-.711-.934-1.655v-6.355c-.501.839-.916,1.527-2.017,2.68-.37.378-.577.547-.992.547-.686,0-.997-.547-.997-1.007,0-.419.167-.606.582-1.09.726-.798,1.931-2.389,3.153-4.91h-1.619c-.686,0-.975,0-1.205-.146-.456-.314-.456-.775-.456-.903,0-.438.167-.647.289-.775.293-.292.501-.292,1.371-.292h1.89v-2.311l-1.516.314c-.559.128-.623.15-.83.15-.934,0-1.06-.884-1.06-1.094,0-.857.645-1.007,1.453-1.171l4.299-.944c.578-.128.641-.15.848-.15.686,0,1.037.483,1.037,1.094,0,.898-.623,1.026-1.453,1.194l-.893.187v2.731h1.164c.686,0,.974,0,1.204.146.456.315.456.775.456.921,0,.419-.167.652-.289.757-.293.292-.501.292-1.371.292h-1.164v.296Z"/><path class="h" d="M82.356,15.134c-.144-.337-.415-.884-.618-1.322-.334-.693-.374-.775-.374-.925,0-.397.374-.962.934-.962.663,0,.934.565,1.326,1.427.374.775.501,1.026.501,1.404,0,.169-.063.315-.104.378h2.571l.767-1.281c.997-1.741,1.038-1.823,1.556-1.823.559,0,1.06.483,1.06.962,0,.337-.248.798-.397,1.048l-.663,1.094h2.098c.893,0,1.39.629,1.39,1.277v2.539c0,.693,0,.989-.144,1.194-.248.378-.559.483-.83.483-.415,0-.704-.269-.83-.461-.144-.228-.144-.524-.144-1.217v-1.131c0-.588-.086-.716-.605-.716h-12.866c-.374,0-.559.023-.559.675v1.172c0,.862,0,1.094-.293,1.386-.185.169-.415.292-.726.292-.433,0-.704-.228-.871-.461-.144-.228-.144-.524-.144-1.217v-2.284c0-.315.271-1.532,1.683-1.532h1.886c-.207-.36-.248-.419-.559-.984-.496-.843-.559-.948-.559-1.176,0-.506.374-.985.83-.985.686,0,1.078.606,1.326,1.003.248.401.812,1.386.812,1.805,0,.146-.023.251-.063.337h2.612ZM75.715,25.473c-.848,0-1.078,0-1.367-.292-.189-.187-.293-.442-.293-.716,0-.479.311-.775.46-.88.226-.146.519-.146,1.2-.146h6.519c-.767-.985-.871-1.112-.871-1.427,0-.501.393-.944.889-.944.749,0,1.642,1.217,1.913,1.614,1.101-.752,2.283-1.823,2.283-2.097,0-.21-.208-.21-.415-.21h-6.871c-.686,0-.975,0-1.182-.146-.397-.251-.478-.588-.478-.839,0-.42.248-.693.456-.839.23-.146.519-.146,1.205-.146h8.531c.911,0,1.43.501,1.43,1.34,0,1.112-1.101,2.539-2.716,3.693h4.813c.853,0,1.078,0,1.367.292.189.191.293.442.293.734,0,.465-.311.757-.456.862-.23.146-.519.146-1.205.146h-5.666c.289.884.438,1.596.438,2.247,0,2.703-1.994,3.67-3.947,3.67-1.367,0-2.698-.314-3.172-.629-.46-.314-.541-.629-.541-.903,0-.187.063-1.071,1.078-1.071.23,0,.686.15.83.191.956.274,1.516.315,1.913.315,1.845,0,1.845-1.636,1.845-1.764,0-.273-.063-.903-.56-2.056h-7.723Z"/><path class="h" d="M111.941,14.441c.681,0,.952,0,1.182.146.393.274.456.611.456.839,0,.419-.271.693-.456.82-.207.146-.501.146-1.182.146h-3.447v2.452h2.761c1.367,0,1.412,1.258,1.412,1.828,0,.921-.293,2.452-1.02,3.898-.455.925-1.1,1.869-2.053,2.895.682.465,1.16.78,3.32,1.618.559.233.848.438.848,1.007,0,.606-.352,1.131-.952,1.131-.248,0-2.075-.315-4.859-2.307-1.223.88-2.26,1.404-3.695,1.846-.744.232-1.574.397-1.867.397-.663,0-1.096-.501-1.096-1.236,0-.757.641-.903,1.2-1.03,2.098-.461,2.761-.752,3.78-1.427-2.305-2.453-2.905-4.486-2.905-4.841,0-.36.311-.884,1.015-.884.582,0,.749.314,1.164,1.153.474.925,1.263,2.184,2.386,3.232,1.926-1.91,2.49-4.194,2.49-4.764,0-.419-.293-.419-.501-.419h-6.433c-.871,0-1.056,0-1.367-.292-.104-.128-.293-.337-.293-.757,0-.168.022-.588.478-.903.208-.146.496-.146,1.182-.146h3.05v-2.452h-3.275c-.686,0-.979,0-1.204-.146-.397-.273-.456-.611-.456-.839,0-.419.266-.693.456-.82.226-.146.519-.146,1.204-.146h3.275v-.82c0-.688,0-.962.149-1.194.248-.355.559-.46.83-.46.415,0,.681.251.83.46.144.21.144.506.144,1.194v.82h3.447ZM97.473,13.643c0-.88,0-1.089.293-1.386.185-.187.433-.292.704-.292.496,0,.767.315.871.46.144.233.144.524.144,1.217v2.412h.708c.871,0,1.078,0,1.367.296.104.123.293.333.293.752,0,.314-.104.652-.46.903-.226.146-.514.146-1.2.146h-.708v3.045c.271-.087.708-.255.979-.36.144-.059.311-.105.496-.105.208,0,.934.128.934.989,0,.333-.081.542-.271.711-.433.355-1.475.711-2.138.944v5.894c0,1.304-.185,1.974-2.346,1.974-.808,0-2.053,0-2.053-1.135,0-.793.645-1.007.974-1.007.126,0,.686.087.812.087.226,0,.6-.023.6-.67v-4.577c-.478.128-1.349.337-1.89.337-.392,0-1.037-.105-1.037-.944,0-.903.645-1.049.875-1.09,1.096-.232,1.223-.274,2.053-.483v-3.61h-1.164c-.871,0-1.078,0-1.367-.292-.126-.105-.293-.337-.293-.757,0-.315.104-.647.46-.903.226-.146.519-.146,1.2-.146h1.164v-2.412Z"/><path class="h" d="M120.476,27.447c0-.442.329-2.329.374-2.726.122-.966.144-1.322.208-4.595.018-.903.537-1.071.871-1.071.271,0,.456.087.6.191.311.251.438.333.438,1.992,0,.629-.041,3.816-.582,6.168-.063.333-.207.88-.893.985-.311.064-1.015-.064-1.015-.944ZM120.286,12.951c0,.78-1.097,2.184-1.782,2.981-1.204,1.468-1.516,1.468-1.827,1.468-.6,0-1.1-.442-1.1-1.094,0-.419.167-.584.789-1.194,1.1-1.13,1.637-1.928,2.053-2.557.167-.274.356-.506.726-.565.501-.087,1.141.269,1.141.962ZM130.396,14.861c-.915,0-1.204,0-1.516-.461-.23.542-.663.542-.749.542-.122,0-.519-.041-.785-.419-.063-.082-.893-1.741-.893-2.01,0-.465.352-.82.83-.82.6,0,.848.442,1.038.798.311.565.374.711.478.985.289-.629.641-.629,1.597-.629h2.138c.681,0,.975,0,1.182.146.208.15.478.442.478.861,0,.251-.104.524-.293.716-.289.292-.519.292-1.367.292h-2.138ZM128.713,21.407q.248,1.636.437,4.171c.018.064.063.693.063.925,0,.752-.501,1.112-.997,1.112-.916,0-.934-.78-.956-1.933-.023-1.217-.248-3.059-.415-4.299-.022-.21-.185-1.071-.185-1.24,0-.228.082-.985.952-.985.748,0,.852.693,1.1,2.247ZM130.996,19.98h-.848c-.645,0-.956,0-1.187-.169-.144-.105-.474-.401-.474-.88,0-.255.104-.506.311-.716.312-.314.537-.314,1.349-.314h2.76c.641,0,.934,0,1.182.168.122.105.478.397.478.862,0,.228-.085.588-.5.88-.226.169-.497.169-1.078.169v8.935c0,.966,0,2.348-2.138,2.348-.83,0-2.323-.146-3.05-.588-.126-.059-.374-.269-.374-.711,0-.565.415-.944,1.06-.944.266,0,1.638.251,1.949.251.415,0,.56-.169.56-.588v-8.702ZM117.611,22.957c-.604.611-.997.925-1.434.925-.641,0-.992-.629-.992-1.007,0-.419.207-.675.374-.839.934-.944,1.742-1.741,3.108-4.071.542-.903.731-1.217,1.227-1.217.789,0,.956.757.956.966,0,.419-.334,1.09-1.204,2.58v9.313c0,.839,0,1.7-.997,1.7-.248,0-.541-.064-.767-.296-.271-.251-.271-.524-.271-1.404v-6.651ZM127.261,15.531c.685,0,.974,0,1.182.146.46.296.478.675.478.821,0,.438-.289.693-.456.816-.23.15-.519.15-1.204.15h-1.39v11.702c0,.693,0,.989-.144,1.194-.253.378-.582.483-.83.483-.415,0-.686-.269-.83-.46-.149-.228-.149-.524-.149-1.217v-11.702h-1.597c-.685,0-.975,0-1.182-.15-.437-.292-.456-.67-.456-.816,0-.442.27-.693.433-.821.23-.146.519-.146,1.204-.146h1.597v-1.91c0-.688,0-.985.149-1.194.248-.378.577-.46.83-.46.415,0,.681.251.83.46.144.21.144.506.144,1.194v1.91h1.39Z"/><path class="h" d="M146.84,18.302c-.623,0-.916,0-1.164-.15-.311-.187-.497-.501-.497-.839,0-.356.248-.647.497-.816.248-.146.478-.146,1.164-.146h6.266c.623,0,.934,0,1.164.146.311.21.496.501.496.839,0,.356-.226.652-.478.816-.248.15-.474.15-1.182.15h-6.266ZM140.303,21.006c.37-.146.992-.378,1.16-.378.559,0,.771.629.771.966,0,.483-.149.711-1.93,1.45v5.744c0,1.176-.045,2.352-1.971,2.352-.397,0-1.475-.046-1.786-.21-.352-.192-.519-.57-.519-.88,0-.233.144-.948,1.06-.948.103,0,.87.064.911.064.289,0,.311-.419.311-.734v-4.7c-.704.232-1.222.314-1.434.314-.559,0-.911-.461-.911-1.026,0-.652.352-.775.582-.862.081-.041,1.493-.378,1.763-.479v-3.966h-.519c-.853,0-1.141,0-1.371-.251-.226-.214-.311-.529-.311-.78,0-.315.149-.606.311-.775.252-.251.501-.251,1.371-.251h.519v-2.056c0-.862,0-1.09.289-1.386.189-.187.438-.292.708-.292.438,0,.726.269.853.483.144.205.144.501.144,1.194v2.056c1.078,0,1.286,0,1.493.123.311.169.478.57.478.903,0,.296-.126.716-.478.903-.208.128-.437.128-1.493.128v3.291ZM147.836,22.159v6.232c.122-.023.393-.082.682-.169.708-.251.771-.273.956-.273.352,0,.934.273.934.884,0,.542-.311.839-.663.985-1.827.775-4.484,1.131-4.962,1.131-.889,0-1.1-.606-1.1-.962,0-.315.167-.82.811-.944.208-.046,1.164-.191,1.349-.233v-6.651h-1.182c-.086,2.521-.501,5.603-1.85,7.891-.352.606-.808.625-.934.625-.519,0-1.015-.461-1.015-1.003,0-.21.04-.274.478-1.199.559-1.194.893-2.325,1.096-4.426.27-2.516.27-6.04.27-6.733,0-3.018,0-3.816.271-4.322.248-.461.789-.584,1.475-.584h8.797c.853,0,1.083,0,1.372.292.104.105.289.337.289.734,0,.442-.226.716-.456.88-.226.15-.519.15-1.205.15h-7.845c-.681,0-.704,0-.704,2.01,0,.588.022,3.209,0,3.734h8.923c.663,0,.956,0,1.182.15.397.269.46.606.46.839,0,.419-.271.688-.46.816-.226.146-.519.146-1.182.146h-2.616c.126,1.135.23,1.7.523,2.539.6-.314,1.182-.606,1.615-.903.519-.378.789-.483.997-.483.56,0,.975.401.975.989,0,.479-.122.734-1.493,1.509-.974.547-1.078.606-1.263.693.934,1.637,1.66,2.179,2.549,2.831.253.187.415.46.415.82,0,.419-.311,1.067-.934,1.067-.993,0-2.156-1.386-2.386-1.636-.889-1.067-2.635-3.25-3.05-7.426h-1.119Z"/><path class="h" d="M174.552,31.308c.185,0,.808-.273.808-.948,0-.269-.122-.752-.686-.944-.226-.059-1.407-.333-1.678-.397-.541-.146-3.031-1.217-3.631-1.217-.352,0-.916.356-.916.966,0,.606.564.903.852,1.026,0,0,3.88,1.513,5.251,1.513ZM163.635,27.739c-.082.023-.726.296-.853.36-2.427,1.003-2.82,1.172-3.586,1.34-.501.105-1.308.273-1.308,1.071,0,.356.33.985,1.015.985.645,0,2.698-.629,4.629-1.596.871-.438,1.1-.775,1.1-1.217,0-.752-.685-.985-.997-.944ZM165.588,15.617c-.789,0-1.642,0-1.642.816,0,.798.852.798,1.642.798h1.701c.789,0,1.637,0,1.637-.798,0-.816-.848-.816-1.637-.816h-1.701ZM163.509,25.578v-10.822c0-.169.126-.442.415-.442h5.066c.207,0,.393,0,.393.315v10.95h-5.874ZM159.629,16.707l-.041-1.24c-.023-.105-.023-.187.063-.269.081-.087.974-.611,1.452-.903.081-.046.559-.401.559-.884,0-.315-.311-.921-.956-.921-.455,0-2.364,1.026-2.657,1.34-.163.191-.352.483-.33,1.158l.33,10.612c-.682.064-.911.606-.911.944,0,.128.023.501.455.816.23.15.519.15,1.205.15h15.609c.681,0,.975,0,1.2-.15.167-.123.46-.397.46-.816,0-.274-.126-.903-1.078-.966l.33-11.264c.022-.501.022-.693-.041-.839-.085-.169-.289-.629-.997-.629h-1.182c-.686,0-.975,0-1.205.146-.27.191-.456.483-.456.861,0,.461.311.716.519.839.041.023.767.064,1.16.082.23,0,.333.15.333.442l-.041,1.491h-.56c-.456,0-.748,0-.979.146-.226.169-.455.442-.455.88,0,1.03.956,1.03,1.434,1.03h.497l-.041,1.928h-.519c-.374,0-1.371,0-1.371.989,0,.962,1.019.962,1.371.962h.478l-.086,2.936h-2.157v-11.893c0-.606-.541-1.277-1.412-1.277h-6.329c-.789,0-1.286.898-1.286,1.299v11.871h-2.057l-.104-2.808h.393c.437,0,1.394,0,1.394-.989s-.979-.985-1.394-.985h-.456l-.082-1.951h.456c.604,0,1.493,0,1.493-1.067s-.87-1.071-1.493-1.071h-.519ZM164.298,22.642c0,.966.645,1.24,1.268,1.24h1.804c.478,0,1.267-.168,1.267-1.24v-3.082c0-.966-.645-1.24-1.267-1.24h-1.804c-.501,0-1.268.191-1.268,1.24v3.082ZM166.851,20.085c.208,0,.208.082.208.251v1.404c0,.191,0,.337-.226.337h-.686c-.167,0-.27-.064-.27-.251v-1.409c0-.333.104-.333.27-.333h.704Z"/><path class="h" d="M186.552,18.635c.23-.292.478-.647.645-.903-.081.169-.104.255-.104.442,0,.251.104.67.185,1.049l-1.245.082.519-.67ZM187.694,20.837c.063.191.189.483.686.483.437,0,.749-.438.749-.88,0-.397-.207-1.719-.437-2.434-.104-.378-.393-.711-.848-.711-.293,0-.437.146-.541.292.975-1.55,1.286-2.097,1.286-2.389,0-.547-.311-.884-.744-.884-.46,0-.686.274-1.101.967-.144.273-.397.629-.519.816-.293-.374-.519-.588-.749-.816.126-.146.185-.21.685-.816.664-.843.852-1.112.852-1.472,0-.606-.437-.944-.875-.944-.456,0-.641.233-1.056.839-.293.401-.83,1.135-.893,1.199-.189-.128-.392-.233-.645-.233-.496,0-.848.42-.848.839,0,.274.081.506.559.944.311.296,1.619,1.723,1.886,1.992-.266.378-.93,1.199-1.471,1.869-.415.105-.605.501-.605.757,0,.187.086.793,1.042.793.081,0,.145-.018.618-.041l2.968-.169ZM191.14,19.141c-.063-.734-.063-1.007-.122-3.314.266.251,1.344,1.404,1.575,1.637-.704.921-1.015,1.299-1.371,1.677h-.082ZM185.618,21.867c-.311,0-1.078.064-1.493.524-.081-.232-.126-.337-.541-.757-.808-.88-1.078-1.299-1.742-2.475v-1.217c.871,0,.956,0,1.205-.082.23-.064.6-.378.6-.88,0-.255-.081-.57-.455-.821-.23-.146-.33-.146-1.349-.146v-2.371c0-.693,0-.966-.144-1.194-.126-.169-.397-.461-.812-.461-.104,0-.497,0-.808.461-.145.228-.145.501-.145,1.194v2.371h-.519c-.686,0-.975,0-1.205.146-.185.128-.456.401-.456.821,0,.251.104.565.456.816.23.146.519.146,1.205.146h.393c-.271,1.094-.808,3.255-1.66,4.91-.808,1.555-.83,1.573-.83,1.828,0,.565.478.962.975.962.564,0,.812-.228,1.642-2.266v6.295c0,.688,0,.985.145,1.194.126.187.374.46.808.46.104,0,.501,0,.812-.46.144-.21.144-.506.144-1.194v-7.262c.871,1.053.956,1.135,1.412,1.135.289,0,.456-.105.559-.187v1.782c0,.228-.018.378-.122,1.76-.063.966-.212,1.491-.604,2.352-.226.565-.312.711-.312.962,0,.675.605.944.997.944.641,0,.893-.501,1.015-.798.749-1.614.916-2.977,1.02-3.734l.248.169c.519.378.582.442,1.182.944.311.273.519.296.686.296.393,0,.934-.296.934-.903,0-.419-.207-.67-.704-1.112-.46-.401-1.372-1.176-1.809-1.176-.226,0-.374.064-.474.128v-.693c0-.337.248-.501.577-.501h3.424c.356,1.468.771,2.558,1.146,3.46-1.457.985-2.472,1.491-3.117,1.719-.663.251-1.16.46-1.16,1.176,0,.629.641.921.911.921.248,0,2.305-.629,4.254-2.097.997,1.554,2.12,2.225,3.176,2.225,1.39,0,1.953-1.636,1.953-3.506,0-.374,0-1.235-.875-1.235-.789,0-.952.816-.974,1.281,0,.105-.041,1.007-.456,1.007-.207,0-.685-.401-1.204-1.112.749-.675,1.804-1.637,1.804-2.371,0-.629-.496-.985-.952-.985-.334,0-.56.123-.83.419-.144.146-.789.939-.934,1.131-.149-.378-.374-.985-.645-2.033h3.113c.663,0,.956,0,1.182-.15.311-.187.478-.543.478-.793,0-.169-.104-.442-.289-.652-.27-.314-.397-.314-1.579-.314-.104-.251-.334-.734-.537-1.176l1.034-.064c.045.191.126.524.667.524.767,0,.767-.565.767-.816,0-.652-.271-1.928-.352-2.329-.189-.816-.397-1.049-.853-1.049-.6,0-.789.611-.789.839,0,.296.144.944.167,1.071l-1.267.082c.627-.775,2.761-3.67,2.761-4.404,0-.547-.37-.88-.808-.88-.334,0-.541.164-.808.565-.149.233-.893,1.404-1.06,1.655l-.185-.228c-.063-.087-.149-.169-.374-.42.104-.15,1.43-1.782,1.43-2.329,0-.315-.167-.862-.767-.862-.126,0-.437.023-.663.274-.063.064-1.123,1.491-1.268,1.719-.144-.082-.289-.164-.537-.164-.23,0-.356.059-.46.123-.018-1.067-.041-1.194-.063-1.386-.122-.584-.726-.647-.871-.647-1.038,0-1.038,1.089-1.038,1.445,0,5.142.208,6.779.478,8.456h-3.862ZM191.514,21.867c-.041-.232-.063-.378-.167-.985l1.268-.087c0,.023.041.128.433,1.071h-1.534Z"/><path class="h" d="M203.163,22.642c.749,1.112,1.078,1.176,1.412,1.176.704,0,.997-.675.997-1.049,0-.314-.144-.524-.437-.884-.311-.419-1.308-1.823-1.971-3.542v-.401h.333c.682,0,.975,0,1.205-.146.248-.169.456-.438.456-.88,0-.401-.189-.629-.293-.734-.289-.296-.496-.296-1.367-.296h-.333v-2.243c0-.734,0-.984-.122-1.217-.19-.315-.541-.46-.853-.46-.334,0-.663.146-.853.46-.122.233-.122.461-.122,1.217v2.243h-1.082c-.682,0-.975,0-1.2.15-.253.164-.46.438-.46.88,0,.397.189.629.293.734.289.292.496.292,1.367.292h.726c-.474,1.887-1.033,3.902-2.156,5.835-.352.629-.478.857-.478,1.131,0,.67.645,1.071,1.078,1.071.541,0,.916-.232,1.913-2.539v6.232c0,.711,0,.962.122,1.194.19.337.542.483.853.483.33,0,.663-.169.853-.483.122-.233.122-.461.122-1.194v-7.029ZM212.564,17.464v.816h-2.531v-.816h2.531ZM212.564,14.988v.88h-2.531v-.88h2.531ZM210.259,23.358h-2.26v-.419c0-.232.104-.419.352-.419h1.908v.839ZM212.316,22.519h2.053c.149,0,.334,0,.334.315v.524h-2.386v-.839ZM210.259,25.56h-2.26v-.716h2.26v.716ZM210.259,20.86h-2.738c-1.182,0-1.556.985-1.556,1.404v3.296c-.622,0-1.516,0-1.516.903,0,.88.893.88,1.516.88v2.348c0,.862,0,1.09.293,1.386.163.169.415.292.726.292.433,0,.704-.251.871-.461.144-.232.144-.524.144-1.217v-2.348h6.704v1.217c0,.647-.415.647-.871.647-.311,0-.623-.018-.934-.059-.086,0-.767-.087-.812-.087-.474,0-.871.419-.871.925,0,.333.185.752.663.921.356.105,1.245.233,2.138.233.623,0,1.746,0,2.368-.903.185-.274.33-.775.33-1.194v-1.7c.334,0,1.182-.023,1.182-.88,0-.884-.848-.903-1.182-.903v-3.191c0-.711-.415-1.509-1.493-1.509h-2.905v-.944h3.713c1.083,0,1.602,0,1.602-.821,0-.816-.501-.816-1.602-.816h-1.43v-.816h.582c.997,0,1.62,0,1.62-.798s-.623-.798-1.62-.798h-.582v-.88h1.268c.848,0,1.038,0,1.245-.128.248-.169.37-.442.37-.711,0-.274-.122-.547-.37-.716-.208-.128-.438-.128-1.245-.128h-1.268c0-.542,0-.839-.144-1.049-.167-.251-.438-.483-.871-.483-.356,0-.667.168-.875.483-.144.21-.144.483-.144,1.049h-2.531c0-.565,0-.839-.144-1.049-.248-.355-.541-.46-.83-.46-.519,0-.83.397-.893.611-.085.228-.085.397-.085.898h-1.264c-.852,0-1.037,0-1.227.128-.248.169-.37.442-.37.716,0,.269.104.542.37.711.189.128.415.128,1.227.128h1.264v.88h-.889c-.975,0-1.601,0-1.601.798s.627.798,1.601.798h.889v.816h-1.512c-1.082,0-1.619,0-1.619.816,0,.821.496.821,1.619.821h3.69v.944ZM212.316,24.844h2.386v.716h-2.386v-.716Z"/><path class="e" d="M30.792,32.252c10.619-7.412,15.749-18.513,11.454-24.785-4.286-6.282-16.376-5.352-26.991,2.056C4.641,16.944-.489,28.04,3.806,34.313c4.29,6.282,16.371,5.352,26.986-2.061ZM1.51,35.922c-4.52-6.61,1.453-18.69,13.335-26.996C26.732.629,40.031-.743,44.547,5.858c4.511,6.605-1.457,18.69-13.349,26.996-11.878,8.297-25.177,9.674-29.689,3.068Z"/><path class="f" d="M26.804,6.665c1.823,0,3.298-1.495,3.298-3.332s-1.475-3.332-3.298-3.332-3.293,1.491-3.293,3.332,1.475,3.332,3.293,3.332Z"/><path class="d" d="M12.49,12.354v9.915c0,1.482-1.177,2.685-2.653,2.685h-1.931v4.549h2.251c3.776,0,6.839-3.091,6.839-6.906v-10.243h-4.507Z"/><path class="d" d="M36.86,12.354h-14.801c-2.513,0-4.746,2.065-4.746,4.609,0,2.019.97,3.237,2.418,4.372l3.216,2.443c.965.916.32,1.787-1.042,1.787h-4.592v3.938h5.977c2.522,0,4.638-1.655,4.638-4.686,0-2.412-1.371-3.424-2.129-4.13-.735-.693-2.91-2.101-3.862-2.927-.681-.652-.113-1.34.767-1.34h5.63v13.083h4.507v-13.083h4.02v-4.066Z"/><path class="h" d="M53.403,36.651v.506c0,.365.23.593.51.661.275.064.609-.023.816-.269.181-.205.172-.711.172-.907v-3.387h.636v3.943c-.036.228-.162.725-.618,1.017-.343.219-.817.223-.952.182-.974-.046-1.2-.88-1.2-1.217v-.529h.636Z"/><path class="h" d="M59.254,35.297c-.014-.355-.379-.588-.826-.688-.226-.055-.469-.068-.704-.064-.23.023-.456.068-.636.16-.374.178-.546.497-.591.702l-.018.314h.532c.014-.164.054-.629.672-.661.384-.036.925.114.974.369v.424c0,.191-.212.26-.284.274-.338.082-.672.018-1.313.21-.37.114-.708.346-.749.939-.045.706.451,1.162,1.241,1.121.541-.027.853-.305,1.132-.52.018.242.194.447.492.52l.474-.059v-.433c-.189.064-.397-.064-.397-.196v-2.412ZM58.663,37.198c0,.118-.37.725-1.141.706-.311-.005-.641-.173-.623-.615.005-.264.235-.438.338-.488.329-.15.965-.137,1.426-.319v.716Z"/><path class="h" d="M60.733,39.737v-1.878c.054.096.163.214.325.319.158.105.437.219.771.219s.713-.109,1.042-.465c.352-.36.514-1.039.456-1.682-.054-.656-.334-1.286-.862-1.555-.203-.1-.46-.15-.713-.15-.239,0-.465.05-.605.137-.239.146-.374.269-.492.419v-.451h-.492v5.087h.568ZM62.398,35.415c.442.606.352,1.627.054,2.042-.176.255-.469.36-.744.351-.275-.005-.55-.137-.704-.342-.189-.26-.496-1.208-.036-1.992.144-.232.406-.369.686-.388.28-.023.569.082.744.328Z"/><path class="h" d="M66.778,35.297c-.018-.355-.379-.588-.83-.688-.221-.055-.465-.068-.704-.064-.23.023-.451.068-.636.16-.37.178-.541.497-.587.702l-.022.314h.537c.013-.164.054-.629.668-.661.388-.036.929.114.975.369v.424c0,.191-.208.26-.284.274-.338.082-.668.018-1.308.21-.37.114-.708.346-.749.939-.045.706.447,1.162,1.241,1.121.541-.027.852-.305,1.132-.52.018.242.194.447.492.52l.474-.059v-.433c-.189.064-.397-.064-.397-.196v-2.412ZM66.188,37.198c0,.118-.374.725-1.146.706-.307-.005-.636-.173-.623-.615.009-.264.239-.438.338-.488.334-.15.97-.137,1.43-.319v.716Z"/><path class="h" d="M68.366,34.649v.451c.122-.173.271-.324.406-.392.167-.128.446-.168.704-.164.257.009.492.055.582.096.176.096.487.274.559.807v2.794h-.569v-2.498c.009-.447-.316-.679-.708-.679-.474,0-.988.301-.974,1.267v1.91h-.568v-3.592h.568Z"/><path class="h" d="M76.392,34.709c.014-.292-.068-.574-.442-.807-.329-.196-.568-.191-.817-.191-1.137,0-1.34,1.062-.771,1.377.176.1.42.182.749.246l1.218.333c.428.15.821.634.839,1.117.05.998-.88,1.65-1.94,1.614-.65-.018-1.137-.1-1.579-.629-.33-.401-.343-.72-.356-1.108h.586c-.004.292.104.985.956,1.135.149.027.397.046.65.027.257-.027.519-.091.695-.242.32-.274.564-.848-.027-1.258-.289-.15-.695-.246-1.029-.319-.334-.077-.419-.096-.505-.123-.086-.027-.167-.064-.501-.178-.217-.077-.595-.296-.659-.916-.081-.807.46-1.614,1.66-1.614.411,0,.898.073,1.195.26.672.415.713,1.053.69,1.276h-.614Z"/><path class="h" d="M80.709,37.002c-.014.301-.095.561-.189.725-.28.474-.821.693-1.34.67-.523-.027-1.024-.287-1.245-.757-.144-.296-.257-.743-.244-1.222.013-.469.149-.975.505-1.386.284-.328.686-.474,1.069-.488.388-.004.758.11,1.002.324.28.178.401.574.442.989h-.564c-.059-.374-.14-.552-.379-.67-.099-.055-.275-.123-.487-.114-.217.014-.46.1-.695.374-.158.178-.253.529-.28.889-.027.365.013.734.131.966.217.429.568.57.88.556.316-.023.596-.201.677-.392.081-.15.149-.328.167-.465h.55Z"/><path class="h" d="M81.878,34.649h-.568v3.592h.568v-3.592ZM81.878,33.255h-.568v.711h.568v-.711Z"/><path class="h" d="M85.838,36.673c-.009-.666-.013-1.089-.401-1.614-.217-.273-.614-.479-1.056-.515-.437-.032-.92.105-1.304.542-.293.328-.433.852-.442,1.381-.005.524.122,1.048.361,1.354.302.392.785.574,1.25.574.474,0,.934-.178,1.2-.533.217-.255.271-.497.316-.72h-.573c-.081.205-.244.757-.947.757-.415,0-.645-.232-.798-.447-.203-.319-.217-.529-.199-.78h2.594ZM83.267,36.168c.013-.365.216-.752.302-.834.189-.26.501-.342.78-.315.284.027.541.155.613.315.09.096.28.497.257.834h-1.953Z"/><path class="h" d="M87.169,34.649v.451c.122-.173.271-.324.406-.392.172-.128.447-.168.704-.164.257.009.496.055.582.096.176.096.487.274.564.807v2.794h-.568v-2.498c.004-.447-.32-.679-.713-.679-.474,0-.988.301-.974,1.267v1.91h-.568v-3.592h.568Z"/><path class="h" d="M93.12,37.002c-.013.301-.095.561-.189.725-.28.474-.821.693-1.34.67-.523-.027-1.024-.287-1.245-.757-.144-.296-.257-.743-.244-1.222.014-.469.149-.975.505-1.386.284-.328.686-.474,1.069-.488.388-.004.758.11,1.001.324.28.178.402.574.442.989h-.564c-.059-.374-.14-.552-.379-.67-.099-.055-.275-.123-.487-.114-.217.014-.46.1-.695.374-.158.178-.253.529-.28.889-.027.365.014.734.131.966.216.429.569.57.88.556.316-.023.595-.201.677-.392.081-.15.149-.328.167-.465h.55Z"/><path class="h" d="M96.747,36.673c-.009-.666-.013-1.089-.402-1.614-.217-.273-.613-.479-1.056-.515-.438-.032-.92.105-1.304.542-.293.328-.433.852-.442,1.381-.004.524.122,1.048.361,1.354.302.392.785.574,1.25.574.474,0,.934-.178,1.2-.533.217-.255.271-.497.316-.72h-.573c-.081.205-.244.757-.947.757-.415,0-.645-.232-.798-.447-.203-.319-.217-.529-.198-.78h2.594ZM94.175,36.168c.013-.365.217-.752.302-.834.189-.26.501-.342.78-.315.284.027.541.155.613.315.09.096.28.497.257.834h-1.953Z"/><path class="h" d="M102.133,35.297c-.013-.355-.379-.588-.826-.688-.226-.055-.469-.068-.704-.064-.23.023-.456.068-.636.16-.374.178-.541.497-.591.702l-.018.314h.532c.013-.164.054-.629.672-.661.384-.036.925.114.975.369v.424c0,.191-.212.26-.284.274-.338.082-.672.018-1.313.21-.365.114-.704.346-.744.939-.05.706.447,1.162,1.236,1.121.541-.027.853-.305,1.132-.52.018.242.194.447.492.52l.474-.059v-.433c-.189.064-.397-.064-.397-.196v-2.412ZM101.542,37.198c0,.118-.37.725-1.141.706-.311-.005-.636-.173-.622-.615.004-.264.235-.438.338-.488.329-.15.965-.137,1.425-.319v.716Z"/><path class="h" d="M103.721,34.649v.451c.122-.173.271-.324.406-.392.172-.128.447-.168.704-.164.257.009.496.055.582.096.176.096.487.274.564.807v2.794h-.568v-2.498c.004-.447-.32-.679-.713-.679-.474,0-.988.301-.975,1.267v1.91h-.568v-3.592h.568Z"/><path class="h" d="M109.225,33.255v1.833c-.054-.096-.162-.219-.325-.324-.158-.1-.442-.219-.776-.219-.329-.004-.704.11-1.042.465-.352.365-.514,1.039-.451,1.691.054.656.329,1.286.862,1.555.203.096.465.141.708.141s.474-.046.609-.137c.203-.123.379-.301.487-.428v.415h.497v-4.992h-.569ZM107.556,37.531c-.437-.611-.347-1.632-.05-2.047.18-.255.465-.365.744-.351.275.009.551.132.699.342.189.26.496,1.213.036,1.992-.135.232-.406.369-.681.392-.28.018-.564-.082-.749-.328Z"/><polygon class="h" points="113.849 33.82 112.225 33.82 112.225 33.255 116.096 33.255 116.096 33.82 114.485 33.82 114.485 38.242 113.849 38.242 113.849 33.82"/><path class="h" d="M119.691,36.673c-.009-.666-.014-1.089-.401-1.614-.216-.273-.614-.479-1.056-.515-.437-.032-.92.105-1.303.542-.294.328-.434.852-.442,1.381-.005.524.122,1.048.361,1.354.302.392.785.574,1.249.574.474,0,.934-.178,1.201-.533.216-.255.27-.497.315-.72h-.573c-.081.205-.244.757-.948.757-.415,0-.645-.232-.798-.447-.203-.319-.217-.529-.199-.78h2.594ZM117.119,36.168c.014-.365.217-.752.302-.834.189-.26.501-.342.781-.315.284.027.541.155.614.315.09.096.28.497.257.834h-1.954Z"/><path class="h" d="M123.21,37.002c-.014.301-.095.561-.189.725-.28.474-.821.693-1.34.67-.523-.027-1.024-.287-1.245-.757-.144-.296-.262-.743-.244-1.222.013-.469.149-.975.505-1.386.285-.328.686-.474,1.07-.488.388-.004.758.11,1.001.324.28.178.401.574.442.989h-.564c-.059-.374-.14-.552-.379-.67-.099-.055-.275-.123-.487-.114-.217.014-.46.1-.695.374-.158.178-.252.529-.28.889-.027.365.014.734.131.966.216.429.568.57.879.556.316-.023.596-.201.677-.392.081-.15.149-.328.167-.465h.55Z"/><path class="h" d="M123.837,33.255h.568v1.823c.117-.137.325-.319.609-.438.144-.055.307-.096.483-.096s.37.037.573.123c.523.187.596.734.582.843v2.731h-.569v-2.452c.027-.456-.189-.579-.297-.629-.23-.1-.42-.128-.6-.096-.176.036-.352.137-.564.31-.122.123-.217.219-.217.533v2.334h-.568v-4.987Z"/><path class="h" d="M128.167,34.649v.451c.122-.173.271-.324.406-.392.171-.128.447-.168.704-.164.257.009.497.055.582.096.176.096.487.274.564.807v2.794h-.568v-2.498c.004-.447-.32-.679-.713-.679-.474,0-.988.301-.975,1.267v1.91h-.568v-3.592h.568Z"/><path class="h" d="M131.411,37.69c.303.515.826.707,1.326.707s1.02-.191,1.327-.707c.203-.346.275-.793.275-1.222,0-.424-.072-.871-.275-1.217-.307-.515-.826-.707-1.327-.707s-1.024.191-1.326.707c-.203.346-.279.793-.279,1.217,0,.429.077.875.279,1.222ZM132.737,37.822c-.325,0-.677-.164-.839-.547-.108-.269-.185-.533-.185-.807,0-.269.077-.533.144-.802.176-.41.555-.574.88-.547.325,0,.677.164.839.547.108.269.181.533.181.802,0,.274-.073.538-.181.807-.163.383-.515.547-.839.547Z"/><rect class="g" x="135.111" y="33.255" width=".568" height="4.987"/><path class="h" d="M136.676,37.69c.302.515.825.707,1.326.707.497,0,1.02-.191,1.327-.707.203-.346.275-.793.275-1.222,0-.424-.072-.871-.275-1.217-.307-.515-.83-.707-1.327-.707-.501,0-1.024.191-1.326.707-.208.346-.28.793-.28,1.217,0,.429.072.875.28,1.222ZM138.002,37.822c-.329,0-.677-.164-.839-.547-.108-.269-.185-.533-.185-.807,0-.269.077-.533.14-.802.175-.41.555-.574.884-.547.325,0,.677.164.835.547.113.269.185.533.185.802,0,.274-.072.538-.185.807-.158.383-.51.547-.835.547Z"/><path class="h" d="M142.648,34.649v.438c-.293-.369-.631-.529-1.015-.542-.604-.018-1.069.465-1.145.561-.262.378-.411.985-.384,1.568.018.575.216,1.131.636,1.4.275.228.528.305.749.324.541.009.947-.342,1.159-.588,0,.328-.004.438-.072.752-.063.255-.09.397-.428.574-.171.068-.347.096-.515.096-.162,0-.311-.027-.442-.082-.379-.164-.365-.369-.388-.497h-.578c.019.278.1.729.749.984.257.11.545.123.803.1.248-.032.469-.1.591-.141.745-.242.826-1.103.849-1.965v-2.981h-.569ZM142.337,37.576c-.198.214-.46.306-.717.283-.267-.018-.515-.15-.686-.392-.18-.269-.234-.629-.221-.966.014-.333.095-.647.167-.807.189-.41.519-.524.812-.52.293.009.564.146.632.242.402.415.469,1.659.014,2.161Z"/><path class="h" d="M146.912,34.649l-1.611,4.417c-.104.296-.297.488-.491.575-.181.077-.334.105-.47.096-.135,0-.239-.041-.311-.087v-.529c.14.055.289.082.42.055.135-.027.248-.123.315-.315l.212-.565-1.164-3.647h.6l.902,2.717.988-2.717h.609Z"/><path class="h" d="M150.259,36.751h1.89l.501,1.491h.708l-1.733-4.987h-.776l-1.796,4.987h.677l.528-1.491ZM151.233,34.034l.726,2.179h-1.53l.803-2.179Z"/><path class="h" d="M156.187,34.649v.438c-.289-.369-.627-.529-1.015-.542-.6-.018-1.065.465-1.141.561-.266.378-.415.985-.388,1.568.023.575.216,1.131.636,1.4.28.228.528.305.753.324.541.009.948-.342,1.155-.588,0,.328-.005.438-.072.752-.063.255-.086.397-.424.574-.171.068-.347.096-.519.096-.158,0-.311-.027-.437-.082-.379-.164-.366-.369-.393-.497h-.578c.022.278.104.729.753.984.257.11.541.123.798.1.248-.032.474-.1.596-.141.745-.242.826-1.103.844-1.965v-2.981h-.568ZM155.88,37.576c-.198.214-.464.306-.717.283-.267-.018-.519-.15-.686-.392-.181-.269-.239-.629-.226-.966.013-.333.095-.647.171-.807.189-.41.515-.524.812-.52.289.009.56.146.627.242.401.415.469,1.659.018,2.161Z"/><path class="h" d="M160.689,36.673c-.009-.666-.013-1.089-.401-1.614-.212-.273-.613-.479-1.056-.515-.437-.032-.92.105-1.304.542-.293.328-.433.852-.442,1.381-.005.524.122,1.048.361,1.354.302.392.785.574,1.25.574.474,0,.934-.178,1.2-.533.216-.255.271-.497.315-.72h-.573c-.081.205-.244.757-.948.757-.415,0-.645-.232-.798-.447-.203-.319-.217-.529-.198-.78h2.594ZM158.118,36.168c.013-.365.216-.752.302-.834.189-.26.5-.342.78-.315.284.027.541.155.614.315.09.096.28.497.261.834h-1.957Z"/><path class="h" d="M162.02,34.649v.451c.122-.173.271-.324.406-.392.172-.128.447-.168.704-.164.257.009.496.055.582.096.176.096.487.274.564.807v2.794h-.568v-2.498c.004-.447-.32-.679-.713-.679-.474,0-.988.301-.974,1.267v1.91h-.568v-3.592h.568Z"/><path class="h" d="M167.97,37.002c-.013.301-.094.561-.189.725-.28.474-.821.693-1.34.67-.523-.027-1.024-.287-1.245-.757-.144-.296-.257-.743-.244-1.222.014-.469.149-.975.505-1.386.284-.328.685-.474,1.069-.488.388-.004.758.11,1.001.324.28.178.402.574.442.989h-.564c-.059-.374-.14-.552-.378-.67-.1-.055-.275-.123-.487-.114-.217.014-.46.1-.695.374-.158.178-.253.529-.28.889-.027.365.013.734.13.966.217.429.569.57.88.556.315-.023.595-.201.677-.392.081-.15.149-.328.167-.465h.55Z"/><path class="h" d="M171.358,34.649l-1.611,4.417c-.099.296-.298.488-.492.575-.176.077-.334.105-.469.096-.135,0-.234-.041-.311-.087v-.529c.144.055.293.082.42.055.135-.027.252-.123.32-.315l.207-.565-1.164-3.647h.604l.898,2.717.988-2.717h.609Z"/><path class="h" d="M52.734,7.386c.296-.518.867-1.547,1.17-2.86h-.441c-.195,0-.289,0-.563.029l-.108-.263c.209.014.433.029.729.029h.419v-1.182c-.303.029-.469.044-1.069.066l-.015-.087c.599-.233,1.704-.664,2.101-1.021l.614.613c.036.037.094.102.094.175,0,.029-.022.087-.094.087s-.13-.029-.209-.066c-.224.059-.383.095-.686.139v1.277h.296l.238-.365c.043-.066.065-.102.116-.102.036,0,.094.051.123.08l.404.409c.014.015.029.029.043.051l.029-.051c.173.051,1.386.38,1.386,1.153,0,.241-.188.452-.419.452-.217,0-.274-.146-.411-.518-.108-.277-.404-.744-.571-.97-.022.066-.072.066-.166.066h-1.069v.365c.116.044,1.04.394,1.04,1.094,0,.387-.217.46-.332.46-.173,0-.181-.044-.311-.445-.115-.365-.209-.606-.397-.868v2.131c0,.131.022,1.145.022,1.306,0,.19-.108.321-.549.321-.217,0-.224-.08-.224-.277,0-.014.015-.956.015-1.138v-1.488c-.484.897-.939,1.284-1.141,1.452l-.065-.051ZM58.742,5.956l.13-.496c.007-.037.036-.131.094-.131.022,0,.058.037.108.073l.448.357c.043.029.08.066.08.117,0,.066-.072.08-.123.095l-.874.226v1.087c0,.204.015,1.08.015,1.262,0,.139,0,.321-.563.321-.238,0-.253-.088-.253-.256,0-.124.014-1.116.014-1.226v-.978l-1.784.467c-.245.066-.375.11-.541.168l-.166-.226c.318-.058.411-.087.708-.16l1.784-.46v-3.284c0-.401-.014-.657-.036-.861l.903.11c.065.007.166.022.166.109s-.058.117-.246.19v3.532l.137-.037ZM56.005,2.468c.188.037,1.401.343,1.401,1.117,0,.255-.181.46-.404.46-.209,0-.231-.058-.484-.569-.217-.43-.375-.671-.563-.934l.05-.073Z"/><path class="h" d="M63.829,4.927c-.152,0-.274,0-.563.029l-.108-.263c.209.014.433.029.729.029h2.231l.282-.328c.051-.059.08-.088.123-.088.043,0,.072.015.152.08l.289.241c.101-.212.209-.46.267-.657h-4.311c.014.066.036.175.036.329,0,.525-.26.97-.679.97-.282,0-.397-.204-.397-.328,0-.146.065-.226.253-.452.361-.453.455-.839.52-1.094l.087.007c.043.102.087.204.13.365h3.018c.303-.503.599-.993.809-1.678l.867.445c.181.095.181.132.181.168,0,.11-.123.102-.303.088-.412.372-.765.686-1.242.978h.996l.311-.358c.029-.037.065-.08.108-.08.043,0,.101.051.13.08l.65.584c.051.051.087.087.087.146,0,.124-.043.124-.455.131-.383.241-.426.27-.859.518l.116.102c.065.058.108.087.108.153,0,.11-.05.11-.455.131-.123.044-.621.314-.794.409-.159.087-.296.146-.397.19.065.015.145.029.145.11,0,.087-.022.095-.26.19v.343h1.567l.361-.547c.051-.073.08-.088.116-.088.029,0,.058.007.13.066l.672.577c.043.037.065.066.065.11,0,.087-.087.087-.145.087h-2.766v.715c0,.117.007.635.007.744,0,.577-.173.744-1.126.817-.036-.562-.282-.657-1.112-.956v-.08l1.199.022c.173,0,.195-.058.195-.153v-1.109h-2.332c-.137,0-.274,0-.563.029l-.101-.263c.202.015.433.029.722.029h2.275c0-.066,0-.409-.029-.759l.65.08c.484-.533.542-.591.693-.81h-2.275ZM62.724,2.198c1.401.306,1.401.941,1.401,1.043,0,.285-.209.467-.411.467-.195,0-.224-.066-.477-.591-.043-.095-.282-.562-.556-.847l.043-.073ZM64.363,2.038c.462.161.679.233.924.416.26.197.426.496.426.722,0,.256-.166.503-.419.503-.231,0-.282-.153-.412-.518-.029-.095-.224-.65-.57-1.058l.05-.066Z"/><path class="h" d="M75.848,4.475c.079-.037.173-.073.318-.073.462,0,.838.474.838.73,0,.226-.202.27-.571.357-.845.197-1.423.445-1.675.554,0,.044.043.503.043.781,0,.08,0,.503-.419.503-.354,0-.354-.277-.354-.409,0-.087.014-.467.007-.547-.354.19-.975.518-.975.949,0,.277.26.467,1.141.467.397,0,.758-.058,1.105-.117.072-.014.383-.066.433-.066.217,0,.621.197.621.474s-.166.409-1.791.409c-.513,0-1.928,0-1.928-1,0-.686.693-1.146,1.379-1.561-.022-.387-.051-.824-.534-.824-.498,0-.874.43-1.105.832-.274.481-.311.54-.484.54-.195,0-.354-.19-.354-.416,0-.248.094-.343.527-.766.253-.248.571-.664.852-1.073-.852.073-1.047-.409-1.184-.73l.065-.058c.246.182.549.219.845.219.202,0,.506-.029.708-.051.145-.219.412-.635.412-.81,0-.131-.101-.256-.347-.314l.022-.08c.08-.051.195-.117.376-.117.339,0,.802.277.802.525,0,.131-.065.197-.209.35-.087.087-.224.255-.282.328.289-.066.484-.11.7-.204.361-.16.404-.175.491-.175.231,0,.534.146.534.35,0,.255-.332.387-2.231.686-.101.117-.469.577-.7.868.311-.139.477-.204.744-.204.809,0,.967.599,1.011.759.383-.197.773-.394,1.163-.577.18-.087.267-.124.267-.219,0-.044-.022-.146-.274-.204l.015-.088Z"/><path class="h" d="M86.611,8.006c-.267.146-.469.277-.672.847-1.502-.328-2.325-.876-2.672-1.102-1.191.722-2.368,1-3.394,1.131l-.022-.08c.866-.307,1.863-.737,2.888-1.474-.267-.256-1.011-.985-1.307-2.189h-.325c-.144,0-.274,0-.563.029l-.101-.263c.202.015.426.029.722.029h1.596v-1.401h-2.253c-.145,0-.274,0-.563.029l-.108-.263c.209.014.441.029.729.029h2.195v-.409c0-.54-.014-.7-.029-.861l.96.095c.072,0,.181.022.181.11s-.08.117-.274.175v.89h1.617l.361-.547c.043-.066.08-.087.116-.087.043,0,.072.014.13.066l.657.569c.043.044.065.073.065.109,0,.095-.094.095-.145.095h-2.802v1.401h1.011l.289-.329c.058-.066.087-.08.123-.08.043,0,.072.022.123.073l.578.525c.065.058.108.102.108.175,0,.066-.029.102-.152.138-.043.015-.253.051-.296.066-.765,1.16-1.112,1.489-1.466,1.78.657.277,1.538.547,2.694.642v.08ZM81.628,5.139c.411,1.051,1.22,1.569,1.603,1.802.621-.554,1.004-1.102,1.386-1.802h-2.989Z"/><path class="h" d="M90.377,4.015c.072.219.224.285.382.285.274,0,1.365-.233,1.726-.314.122-.029.642-.197.751-.197.202,0,.607.299.607.547,0,.146-.043.168-.441.431-.477.321-1.235,1.138-1.43,1.35.108-.014.195-.022.267-.022.787,0,.802.554.809.905.015.584.022.781.541.781.159,0,.39-.014.679-.087.065-.015.347-.088.39-.088.238,0,.556.204.556.474,0,.153-.108.248-.238.292-.368.109-1.04.109-1.184.109-1.293,0-1.437-.409-1.437-1.343,0-.525,0-.773-.325-.773-.13,0-.209.051-.267.095-.267.263-.621.606-1.372,1.554-.354.445-.39.489-.548.489-.26,0-.383-.27-.383-.482,0-.226.051-.27.491-.657.946-.825,2.759-2.817,2.759-2.897,0-.029-.022-.044-.065-.044-.115,0-.816.241-.997.299-.152.051-.787.372-.931.372-.26,0-.585-.401-.585-.686,0-.19.08-.292.159-.401l.087.007ZM91.142,2.184c.347.328.643.357,1.329.409.888.073.917.489.917.554,0,.204-.188.263-.346.263-.087,0-.47-.037-.549-.037-.115,0-.217.015-.455.059-.137.029-.455.087-.548.102l-.036-.08c.058-.029.311-.168.368-.197.079-.051.122-.073.122-.11,0-.014-.108-.051-.173-.073-.513-.16-.635-.54-.7-.846l.072-.044Z"/><path class="h" d="M97.146,6.474c1.408.35,1.935,1.109,1.935,1.562,0,.299-.173.562-.448.562-.246,0-.311-.153-.513-.606-.361-.824-.823-1.255-1.018-1.445l.043-.073Z"/><path class="h" d="M112.682,7.394c-.311.16-.563.438-.679.948-.78-.401-1.935-1.291-2.448-2.955v1.926c0,.124.022,1.109.022,1.233,0,.117,0,.321-.6.321-.217,0-.238-.066-.238-.226,0-.19.015-1.058.015-1.233v-1.291c-.433.606-1.242,1.591-2.924,2.247l-.043-.08c.332-.27,1.762-1.437,2.512-2.962h-1.805c-.145,0-.274,0-.571.029l-.101-.263c.21.015.434.029.723.029h2.209v-1.598h-1.755c-.145,0-.274,0-.571.029l-.101-.263c.209.015.433.029.729.029h1.697v-.387c0-.292,0-.591-.036-.868l.932.109c.065.007.18.022.18.102,0,.073-.036.11-.274.183v.861h1.17l.368-.562c.036-.044.065-.087.115-.087.036,0,.065.014.137.08l.686.577c.051.044.065.073.065.11,0,.087-.101.087-.152.087h-2.39v1.598h1.632l.382-.577c.036-.051.058-.087.108-.087.051,0,.087.029.13.073l.693.598c.043.037.072.058.072.11,0,.087-.101.087-.152.087h-2.73c.845,1.277,2.202,1.81,2.99,1.985v.088Z"/><path class="h" d="M118.57,7.313c0,.153.022,1.124.022,1.24,0,.277-.26.321-.585.321-.231,0-.246-.073-.246-.219,0-.073.022-1.211.022-1.248v-1.029c-1.018,1.357-2.202,1.904-2.931,2.167l-.043-.08c1.675-1.335,2.202-2.218,2.52-2.838h-1.812c-.145,0-.282.007-.571.029l-.101-.263c.209.022.433.029.722.029h2.216v-1.904h-1.87c-.145,0-.274,0-.563.029l-.108-.263c.209.015.441.029.729.029h1.812v-.38c0-.452-.014-.649-.036-.868l.917.11c.065.007.188.022.188.102,0,.088-.029.102-.282.183v.854h1.293l.368-.569c.036-.058.058-.087.115-.087.043,0,.072.014.137.073l.678.591c.036.037.072.058.072.11,0,.087-.108.087-.152.087h-2.513v1.904h1.748l.339-.511c.051-.073.079-.08.115-.08.029,0,.058,0,.13.066l.621.533c.043.037.065.073.065.109,0,.088-.101.088-.144.088h-2.701c1.004,1.423,2.549,1.81,2.961,1.897v.087c-.542.263-.693.883-.7.92-1.177-.591-2.036-1.649-2.434-2.904v1.685ZM115.827,3.643c.527.183,1.35.613,1.35,1.073,0,.343-.217.562-.448.562-.188,0-.231-.117-.346-.43-.238-.627-.477-.956-.607-1.131l.051-.073ZM120.563,3.986c.115.066.152.117.152.168,0,.102-.108.102-.296.102-.347.43-1.033.985-1.379,1.16l-.058-.066c.188-.343.614-1.131.78-1.802l.801.438Z"/><path class="h" d="M124.033,5.365c.051.058.145.175.325.175.217,0,.303-.095.823-.686.758-.854.989-1.117,1.408-1.117.354,0,.448.088,1.379,1.051,1.177,1.204,1.524,1.379,2.145,1.678.202.095.434.336.434.657,0,.343-.253.401-.347.401-.823,0-2.375-1.919-2.982-2.663-.455-.555-.498-.613-.65-.613-.137,0-.202,0-.722.795-.123.197-.73,1.219-.766,1.262-.043.059-.159.197-.354.197-.419,0-.794-.511-.794-.876,0-.029,0-.051.022-.219l.079-.044Z"/><path class="h" d="M133.301,3.949c.079.124.181.299.462.299.159,0,.282-.037.513-.11,1.53-.481,2.058-.649,2.859-.649.924,0,2.08.423,2.08,1.868,0,2.298-2.593,2.539-4.001,2.517l-.007-.087c.852-.139,3.141-.562,3.141-2.605,0-1.043-.614-1.394-1.235-1.394-.917,0-2.029.554-2.708,1.16-.238.212-.34.285-.47.285-.318,0-.787-.482-.787-.927,0-.138.043-.248.072-.336l.08-.022Z"/><path class="h" d="M144.064,2.373c.108-.037.209-.066.339-.066.419,0,.787.35.787.562,0,.095-.015.124-.209.38-.051.066-.087.124-.123.19.13-.029.253-.073.368-.117.13-.044.332-.124.397-.124.202,0,.491.153.491.343,0,.204-.101.263-1.567.533-.195.43-1.033,2.335-1.22,2.714-.253.518-.411.518-.498.518-.274,0-.354-.328-.354-.474,0-.183.043-.241.404-.788.173-.263.607-1.014.997-1.853-.051.007-.325.051-.571.051-.556,0-.657-.343-.766-.715l.072-.044c.101.08.253.204.65.204.173,0,.433-.015.874-.087.072-.19.231-.577.231-.759,0-.233-.231-.336-.325-.387l.022-.08ZM146.028,4.059c.245-.073.39-.117.65-.117.722,0,1.466.416,1.466.897,0,.19-.13.336-.304.336-.094,0-.122-.014-.354-.153-.13-.073-.224-.102-.354-.102-.607,0-.607.445-.607.657,0,.197.015.314.108,1.321.96.387,1.184.7,1.184,1.007,0,.204-.123.387-.318.387-.13,0-.224-.073-.332-.175-.318-.284-.347-.307-.534-.438-.123.606-.65.832-1.293.832-1.278,0-1.278-.839-1.278-.934,0-.445.354-.934,1.307-.934.26,0,.433.029.578.059-.015-.526-.015-.584-.015-.679,0-.606.079-1.051.982-1.284.072-.022.217-.058.217-.095,0-.117-.498-.379-1.119-.496l.015-.087ZM145.053,7.16c-.397,0-.664.168-.664.372,0,.241.311.387.759.387.801,0,.808-.452.808-.606-.318-.117-.671-.153-.903-.153Z"/><path class="h" d="M154.379,2.308c.166-.044.274-.066.368-.066.404,0,.931.401.931.847,0,.212-.058.248-.556.577-1.083.708-1.603,1.051-1.697,1.109-.368.248-.837.569-.837.73,0,.146.188.256.484.431,1.466.861,2.751,1.605,2.751,2.24,0,.307-.231.54-.448.54-.195,0-.246-.066-.715-.693-.448-.598-1.466-1.35-1.712-1.51-.628-.416-.96-.642-.96-.985s.18-.489,1.011-1.138c.441-.343,1.199-.963,1.43-1.189.188-.183.274-.307.274-.43,0-.219-.245-.336-.339-.38l.015-.08ZM155.52,3.687c.78.212,1.336.73,1.336,1.087,0,.197-.13.336-.253.336-.13,0-.152-.037-.354-.394-.231-.409-.433-.649-.787-.948l.058-.08ZM156.119,3.205c.773.131,1.415.628,1.415,1.022,0,.168-.108.299-.231.299-.13,0-.152-.037-.375-.365-.238-.35-.52-.635-.86-.876l.051-.08Z"/><path class="h" d="M66.061,22.473c-.415,0-.708-.274-1.019-.542-.329-.274-1.534-1.322-2.508-2.12-.397-.314-.668-.565-.668-1.09,0-.839.708-1.053,1.037-1.053.415,0,.627.15,1.827,1.094.726.588,1.452,1.194,2.098,1.887.208.233.311.547.311.693,0,.944-.83,1.13-1.078,1.13ZM66.327,17.062c-.185,0-.352-.018-.681-.292-1.06-.884-1.182-.966-2.368-1.91-.808-.629-.934-.734-.934-1.217,0-.501.397-.984.997-.984.392,0,1.101.542,1.619.962.663.529,1.683,1.345,2.035,1.764.208.274.289.419.289.711,0,.652-.496.966-.956.966ZM70.171,25.601v3.92c0,.884,0,1.094-.293,1.386-.226.233-.478.296-.744.296-.397,0-.686-.168-.893-.465-.144-.228-.144-.524-.144-1.217v-3.501l-5.066,1.007c-.541.105-.686.128-.871.128-.541,0-.956-.465-.956-1.007,0-.843.645-.966,1.435-1.135l5.459-1.112v-10.216c0-.857,0-1.071.289-1.381.208-.21.478-.296.749-.296.329,0,.663.128.889.483.149.21.149.501.149,1.194v9.796c.911-.187.934-.187,1.16-.187.853,0,.934.88.934,1.067,0,.82-.6.944-1.452,1.112l-.641.128ZM58.442,19.875c.812,1.235,1.931,2.58,2.368,3.041.289.337.559.629.559,1.112,0,.734-.6,1.048-1.037,1.048-.6,0-.871-.378-1.89-1.741v6.377c0,.798,0,.962-.081,1.153-.185.378-.6.501-.871.501-.934,0-.934-.711-.934-1.655v-6.355c-.501.839-.916,1.527-2.017,2.68-.37.378-.577.547-.992.547-.686,0-.997-.547-.997-1.007,0-.419.167-.606.582-1.09.726-.798,1.931-2.389,3.153-4.91h-1.619c-.686,0-.975,0-1.205-.146-.456-.314-.456-.775-.456-.903,0-.438.167-.647.289-.775.293-.292.501-.292,1.371-.292h1.89v-2.311l-1.516.314c-.559.128-.623.15-.83.15-.934,0-1.06-.884-1.06-1.094,0-.857.645-1.007,1.453-1.171l4.299-.944c.578-.128.641-.15.848-.15.686,0,1.037.483,1.037,1.094,0,.898-.623,1.026-1.453,1.194l-.893.187v2.731h1.164c.686,0,.974,0,1.204.146.456.315.456.775.456.921,0,.419-.167.652-.289.757-.293.292-.501.292-1.371.292h-1.164v.296Z"/><path class="h" d="M82.356,15.134c-.144-.337-.415-.884-.618-1.322-.334-.693-.374-.775-.374-.925,0-.397.374-.962.934-.962.663,0,.934.565,1.326,1.427.374.775.501,1.026.501,1.404,0,.169-.063.315-.104.378h2.571l.767-1.281c.997-1.741,1.038-1.823,1.556-1.823.559,0,1.06.483,1.06.962,0,.337-.248.798-.397,1.048l-.663,1.094h2.098c.893,0,1.39.629,1.39,1.277v2.539c0,.693,0,.989-.144,1.194-.248.378-.559.483-.83.483-.415,0-.704-.269-.83-.461-.144-.228-.144-.524-.144-1.217v-1.131c0-.588-.086-.716-.605-.716h-12.866c-.374,0-.559.023-.559.675v1.172c0,.862,0,1.094-.293,1.386-.185.169-.415.292-.726.292-.433,0-.704-.228-.871-.461-.144-.228-.144-.524-.144-1.217v-2.284c0-.315.271-1.532,1.683-1.532h1.886c-.207-.36-.248-.419-.559-.984-.496-.843-.559-.948-.559-1.176,0-.506.374-.985.83-.985.686,0,1.078.606,1.326,1.003.248.401.812,1.386.812,1.805,0,.146-.023.251-.063.337h2.612ZM75.715,25.473c-.848,0-1.078,0-1.367-.292-.189-.187-.293-.442-.293-.716,0-.479.311-.775.46-.88.226-.146.519-.146,1.2-.146h6.519c-.767-.985-.871-1.112-.871-1.427,0-.501.393-.944.889-.944.749,0,1.642,1.217,1.913,1.614,1.101-.752,2.283-1.823,2.283-2.097,0-.21-.208-.21-.415-.21h-6.871c-.686,0-.975,0-1.182-.146-.397-.251-.478-.588-.478-.839,0-.42.248-.693.456-.839.23-.146.519-.146,1.205-.146h8.531c.911,0,1.43.501,1.43,1.34,0,1.112-1.101,2.539-2.716,3.693h4.813c.853,0,1.078,0,1.367.292.189.191.293.442.293.734,0,.465-.311.757-.456.862-.23.146-.519.146-1.205.146h-5.666c.289.884.438,1.596.438,2.247,0,2.703-1.994,3.67-3.947,3.67-1.367,0-2.698-.314-3.172-.629-.46-.314-.541-.629-.541-.903,0-.187.063-1.071,1.078-1.071.23,0,.686.15.83.191.956.274,1.516.315,1.913.315,1.845,0,1.845-1.636,1.845-1.764,0-.273-.063-.903-.56-2.056h-7.723Z"/><path class="h" d="M111.941,14.441c.681,0,.952,0,1.182.146.393.274.456.611.456.839,0,.419-.271.693-.456.82-.207.146-.501.146-1.182.146h-3.447v2.452h2.761c1.367,0,1.412,1.258,1.412,1.828,0,.921-.293,2.452-1.02,3.898-.455.925-1.1,1.869-2.053,2.895.682.465,1.16.78,3.32,1.618.559.233.848.438.848,1.007,0,.606-.352,1.131-.952,1.131-.248,0-2.075-.315-4.859-2.307-1.223.88-2.26,1.404-3.695,1.846-.744.232-1.574.397-1.867.397-.663,0-1.096-.501-1.096-1.236,0-.757.641-.903,1.2-1.03,2.098-.461,2.761-.752,3.78-1.427-2.305-2.453-2.905-4.486-2.905-4.841,0-.36.311-.884,1.015-.884.582,0,.749.314,1.164,1.153.474.925,1.263,2.184,2.386,3.232,1.926-1.91,2.49-4.194,2.49-4.764,0-.419-.293-.419-.501-.419h-6.433c-.871,0-1.056,0-1.367-.292-.104-.128-.293-.337-.293-.757,0-.168.022-.588.478-.903.208-.146.496-.146,1.182-.146h3.05v-2.452h-3.275c-.686,0-.979,0-1.204-.146-.397-.273-.456-.611-.456-.839,0-.419.266-.693.456-.82.226-.146.519-.146,1.204-.146h3.275v-.82c0-.688,0-.962.149-1.194.248-.355.559-.46.83-.46.415,0,.681.251.83.46.144.21.144.506.144,1.194v.82h3.447ZM97.473,13.643c0-.88,0-1.089.293-1.386.185-.187.433-.292.704-.292.496,0,.767.315.871.46.144.233.144.524.144,1.217v2.412h.708c.871,0,1.078,0,1.367.296.104.123.293.333.293.752,0,.314-.104.652-.46.903-.226.146-.514.146-1.2.146h-.708v3.045c.271-.087.708-.255.979-.36.144-.059.311-.105.496-.105.208,0,.934.128.934.989,0,.333-.081.542-.271.711-.433.355-1.475.711-2.138.944v5.894c0,1.304-.185,1.974-2.346,1.974-.808,0-2.053,0-2.053-1.135,0-.793.645-1.007.974-1.007.126,0,.686.087.812.087.226,0,.6-.023.6-.67v-4.577c-.478.128-1.349.337-1.89.337-.392,0-1.037-.105-1.037-.944,0-.903.645-1.049.875-1.09,1.096-.232,1.223-.274,2.053-.483v-3.61h-1.164c-.871,0-1.078,0-1.367-.292-.126-.105-.293-.337-.293-.757,0-.315.104-.647.46-.903.226-.146.519-.146,1.2-.146h1.164v-2.412Z"/><path class="h" d="M120.476,27.447c0-.442.329-2.329.374-2.726.122-.966.144-1.322.208-4.595.018-.903.537-1.071.871-1.071.271,0,.456.087.6.191.311.251.438.333.438,1.992,0,.629-.041,3.816-.582,6.168-.063.333-.207.88-.893.985-.311.064-1.015-.064-1.015-.944ZM120.286,12.951c0,.78-1.097,2.184-1.782,2.981-1.204,1.468-1.516,1.468-1.827,1.468-.6,0-1.1-.442-1.1-1.094,0-.419.167-.584.789-1.194,1.1-1.13,1.637-1.928,2.053-2.557.167-.274.356-.506.726-.565.501-.087,1.141.269,1.141.962ZM130.396,14.861c-.915,0-1.204,0-1.516-.461-.23.542-.663.542-.749.542-.122,0-.519-.041-.785-.419-.063-.082-.893-1.741-.893-2.01,0-.465.352-.82.83-.82.6,0,.848.442,1.038.798.311.565.374.711.478.985.289-.629.641-.629,1.597-.629h2.138c.681,0,.975,0,1.182.146.208.15.478.442.478.861,0,.251-.104.524-.293.716-.289.292-.519.292-1.367.292h-2.138ZM128.713,21.407q.248,1.636.437,4.171c.018.064.063.693.063.925,0,.752-.501,1.112-.997,1.112-.916,0-.934-.78-.956-1.933-.023-1.217-.248-3.059-.415-4.299-.022-.21-.185-1.071-.185-1.24,0-.228.082-.985.952-.985.748,0,.852.693,1.1,2.247ZM130.996,19.98h-.848c-.645,0-.956,0-1.187-.169-.144-.105-.474-.401-.474-.88,0-.255.104-.506.311-.716.312-.314.537-.314,1.349-.314h2.76c.641,0,.934,0,1.182.168.122.105.478.397.478.862,0,.228-.085.588-.5.88-.226.169-.497.169-1.078.169v8.935c0,.966,0,2.348-2.138,2.348-.83,0-2.323-.146-3.05-.588-.126-.059-.374-.269-.374-.711,0-.565.415-.944,1.06-.944.266,0,1.638.251,1.949.251.415,0,.56-.169.56-.588v-8.702ZM117.611,22.957c-.604.611-.997.925-1.434.925-.641,0-.992-.629-.992-1.007,0-.419.207-.675.374-.839.934-.944,1.742-1.741,3.108-4.071.542-.903.731-1.217,1.227-1.217.789,0,.956.757.956.966,0,.419-.334,1.09-1.204,2.58v9.313c0,.839,0,1.7-.997,1.7-.248,0-.541-.064-.767-.296-.271-.251-.271-.524-.271-1.404v-6.651ZM127.261,15.531c.685,0,.974,0,1.182.146.46.296.478.675.478.821,0,.438-.289.693-.456.816-.23.15-.519.15-1.204.15h-1.39v11.702c0,.693,0,.989-.144,1.194-.253.378-.582.483-.83.483-.415,0-.686-.269-.83-.46-.149-.228-.149-.524-.149-1.217v-11.702h-1.597c-.685,0-.975,0-1.182-.15-.437-.292-.456-.67-.456-.816,0-.442.27-.693.433-.821.23-.146.519-.146,1.204-.146h1.597v-1.91c0-.688,0-.985.149-1.194.248-.378.577-.46.83-.46.415,0,.681.251.83.46.144.21.144.506.144,1.194v1.91h1.39Z"/><path class="h" d="M146.84,18.302c-.623,0-.916,0-1.164-.15-.311-.187-.497-.501-.497-.839,0-.356.248-.647.497-.816.248-.146.478-.146,1.164-.146h6.266c.623,0,.934,0,1.164.146.311.21.496.501.496.839,0,.356-.226.652-.478.816-.248.15-.474.15-1.182.15h-6.266ZM140.303,21.006c.37-.146.992-.378,1.16-.378.559,0,.771.629.771.966,0,.483-.149.711-1.93,1.45v5.744c0,1.176-.045,2.352-1.971,2.352-.397,0-1.475-.046-1.786-.21-.352-.192-.519-.57-.519-.88,0-.233.144-.948,1.06-.948.103,0,.87.064.911.064.289,0,.311-.419.311-.734v-4.7c-.704.232-1.222.314-1.434.314-.559,0-.911-.461-.911-1.026,0-.652.352-.775.582-.862.081-.041,1.493-.378,1.763-.479v-3.966h-.519c-.853,0-1.141,0-1.371-.251-.226-.214-.311-.529-.311-.78,0-.315.149-.606.311-.775.252-.251.501-.251,1.371-.251h.519v-2.056c0-.862,0-1.09.289-1.386.189-.187.438-.292.708-.292.438,0,.726.269.853.483.144.205.144.501.144,1.194v2.056c1.078,0,1.286,0,1.493.123.311.169.478.57.478.903,0,.296-.126.716-.478.903-.208.128-.437.128-1.493.128v3.291ZM147.836,22.159v6.232c.122-.023.393-.082.682-.169.708-.251.771-.273.956-.273.352,0,.934.273.934.884,0,.542-.311.839-.663.985-1.827.775-4.484,1.131-4.962,1.131-.889,0-1.1-.606-1.1-.962,0-.315.167-.82.811-.944.208-.046,1.164-.191,1.349-.233v-6.651h-1.182c-.086,2.521-.501,5.603-1.85,7.891-.352.606-.808.625-.934.625-.519,0-1.015-.461-1.015-1.003,0-.21.04-.274.478-1.199.559-1.194.893-2.325,1.096-4.426.27-2.516.27-6.04.27-6.733,0-3.018,0-3.816.271-4.322.248-.461.789-.584,1.475-.584h8.797c.853,0,1.083,0,1.372.292.104.105.289.337.289.734,0,.442-.226.716-.456.88-.226.15-.519.15-1.205.15h-7.845c-.681,0-.704,0-.704,2.01,0,.588.022,3.209,0,3.734h8.923c.663,0,.956,0,1.182.15.397.269.46.606.46.839,0,.419-.271.688-.46.816-.226.146-.519.146-1.182.146h-2.616c.126,1.135.23,1.7.523,2.539.6-.314,1.182-.606,1.615-.903.519-.378.789-.483.997-.483.56,0,.975.401.975.989,0,.479-.122.734-1.493,1.509-.974.547-1.078.606-1.263.693.934,1.637,1.66,2.179,2.549,2.831.253.187.415.46.415.82,0,.419-.311,1.067-.934,1.067-.993,0-2.156-1.386-2.386-1.636-.889-1.067-2.635-3.25-3.05-7.426h-1.119Z"/><path class="h" d="M174.552,31.308c.185,0,.808-.273.808-.948,0-.269-.122-.752-.686-.944-.226-.059-1.407-.333-1.678-.397-.541-.146-3.031-1.217-3.631-1.217-.352,0-.916.356-.916.966,0,.606.564.903.852,1.026,0,0,3.88,1.513,5.251,1.513ZM163.635,27.739c-.082.023-.726.296-.853.36-2.427,1.003-2.82,1.172-3.586,1.34-.501.105-1.308.273-1.308,1.071,0,.356.33.985,1.015.985.645,0,2.698-.629,4.629-1.596.871-.438,1.1-.775,1.1-1.217,0-.752-.685-.985-.997-.944ZM165.588,15.617c-.789,0-1.642,0-1.642.816,0,.798.852.798,1.642.798h1.701c.789,0,1.637,0,1.637-.798,0-.816-.848-.816-1.637-.816h-1.701ZM163.509,25.578v-10.822c0-.169.126-.442.415-.442h5.066c.207,0,.393,0,.393.315v10.95h-5.874ZM159.629,16.707l-.041-1.24c-.023-.105-.023-.187.063-.269.081-.087.974-.611,1.452-.903.081-.046.559-.401.559-.884,0-.315-.311-.921-.956-.921-.455,0-2.364,1.026-2.657,1.34-.163.191-.352.483-.33,1.158l.33,10.612c-.682.064-.911.606-.911.944,0,.128.023.501.455.816.23.15.519.15,1.205.15h15.609c.681,0,.975,0,1.2-.15.167-.123.46-.397.46-.816,0-.274-.126-.903-1.078-.966l.33-11.264c.022-.501.022-.693-.041-.839-.085-.169-.289-.629-.997-.629h-1.182c-.686,0-.975,0-1.205.146-.27.191-.456.483-.456.861,0,.461.311.716.519.839.041.023.767.064,1.16.082.23,0,.333.15.333.442l-.041,1.491h-.56c-.456,0-.748,0-.979.146-.226.169-.455.442-.455.88,0,1.03.956,1.03,1.434,1.03h.497l-.041,1.928h-.519c-.374,0-1.371,0-1.371.989,0,.962,1.019.962,1.371.962h.478l-.086,2.936h-2.157v-11.893c0-.606-.541-1.277-1.412-1.277h-6.329c-.789,0-1.286.898-1.286,1.299v11.871h-2.057l-.104-2.808h.393c.437,0,1.394,0,1.394-.989s-.979-.985-1.394-.985h-.456l-.082-1.951h.456c.604,0,1.493,0,1.493-1.067s-.87-1.071-1.493-1.071h-.519ZM164.298,22.642c0,.966.645,1.24,1.268,1.24h1.804c.478,0,1.267-.168,1.267-1.24v-3.082c0-.966-.645-1.24-1.267-1.24h-1.804c-.501,0-1.268.191-1.268,1.24v3.082ZM166.851,20.085c.208,0,.208.082.208.251v1.404c0,.191,0,.337-.226.337h-.686c-.167,0-.27-.064-.27-.251v-1.409c0-.333.104-.333.27-.333h.704Z"/><path class="h" d="M186.552,18.635c.23-.292.478-.647.645-.903-.081.169-.104.255-.104.442,0,.251.104.67.185,1.049l-1.245.082.519-.67ZM187.694,20.837c.063.191.189.483.686.483.437,0,.749-.438.749-.88,0-.397-.207-1.719-.437-2.434-.104-.378-.393-.711-.848-.711-.293,0-.437.146-.541.292.975-1.55,1.286-2.097,1.286-2.389,0-.547-.311-.884-.744-.884-.46,0-.686.274-1.101.967-.144.273-.397.629-.519.816-.293-.374-.519-.588-.749-.816.126-.146.185-.21.685-.816.664-.843.852-1.112.852-1.472,0-.606-.437-.944-.875-.944-.456,0-.641.233-1.056.839-.293.401-.83,1.135-.893,1.199-.189-.128-.392-.233-.645-.233-.496,0-.848.42-.848.839,0,.274.081.506.559.944.311.296,1.619,1.723,1.886,1.992-.266.378-.93,1.199-1.471,1.869-.415.105-.605.501-.605.757,0,.187.086.793,1.042.793.081,0,.145-.018.618-.041l2.968-.169ZM191.14,19.141c-.063-.734-.063-1.007-.122-3.314.266.251,1.344,1.404,1.575,1.637-.704.921-1.015,1.299-1.371,1.677h-.082ZM185.618,21.867c-.311,0-1.078.064-1.493.524-.081-.232-.126-.337-.541-.757-.808-.88-1.078-1.299-1.742-2.475v-1.217c.871,0,.956,0,1.205-.082.23-.064.6-.378.6-.88,0-.255-.081-.57-.455-.821-.23-.146-.33-.146-1.349-.146v-2.371c0-.693,0-.966-.144-1.194-.126-.169-.397-.461-.812-.461-.104,0-.497,0-.808.461-.145.228-.145.501-.145,1.194v2.371h-.519c-.686,0-.975,0-1.205.146-.185.128-.456.401-.456.821,0,.251.104.565.456.816.23.146.519.146,1.205.146h.393c-.271,1.094-.808,3.255-1.66,4.91-.808,1.555-.83,1.573-.83,1.828,0,.565.478.962.975.962.564,0,.812-.228,1.642-2.266v6.295c0,.688,0,.985.145,1.194.126.187.374.46.808.46.104,0,.501,0,.812-.46.144-.21.144-.506.144-1.194v-7.262c.871,1.053.956,1.135,1.412,1.135.289,0,.456-.105.559-.187v1.782c0,.228-.018.378-.122,1.76-.063.966-.212,1.491-.604,2.352-.226.565-.312.711-.312.962,0,.675.605.944.997.944.641,0,.893-.501,1.015-.798.749-1.614.916-2.977,1.02-3.734l.248.169c.519.378.582.442,1.182.944.311.273.519.296.686.296.393,0,.934-.296.934-.903,0-.419-.207-.67-.704-1.112-.46-.401-1.372-1.176-1.809-1.176-.226,0-.374.064-.474.128v-.693c0-.337.248-.501.577-.501h3.424c.356,1.468.771,2.558,1.146,3.46-1.457.985-2.472,1.491-3.117,1.719-.663.251-1.16.46-1.16,1.176,0,.629.641.921.911.921.248,0,2.305-.629,4.254-2.097.997,1.554,2.12,2.225,3.176,2.225,1.39,0,1.953-1.636,1.953-3.506,0-.374,0-1.235-.875-1.235-.789,0-.952.816-.974,1.281,0,.105-.041,1.007-.456,1.007-.207,0-.685-.401-1.204-1.112.749-.675,1.804-1.637,1.804-2.371,0-.629-.496-.985-.952-.985-.334,0-.56.123-.83.419-.144.146-.789.939-.934,1.131-.149-.378-.374-.985-.645-2.033h3.113c.663,0,.956,0,1.182-.15.311-.187.478-.543.478-.793,0-.169-.104-.442-.289-.652-.27-.314-.397-.314-1.579-.314-.104-.251-.334-.734-.537-1.176l1.034-.064c.045.191.126.524.667.524.767,0,.767-.565.767-.816,0-.652-.271-1.928-.352-2.329-.189-.816-.397-1.049-.853-1.049-.6,0-.789.611-.789.839,0,.296.144.944.167,1.071l-1.267.082c.627-.775,2.761-3.67,2.761-4.404,0-.547-.37-.88-.808-.88-.334,0-.541.164-.808.565-.149.233-.893,1.404-1.06,1.655l-.185-.228c-.063-.087-.149-.169-.374-.42.104-.15,1.43-1.782,1.43-2.329,0-.315-.167-.862-.767-.862-.126,0-.437.023-.663.274-.063.064-1.123,1.491-1.268,1.719-.144-.082-.289-.164-.537-.164-.23,0-.356.059-.46.123-.018-1.067-.041-1.194-.063-1.386-.122-.584-.726-.647-.871-.647-1.038,0-1.038,1.089-1.038,1.445,0,5.142.208,6.779.478,8.456h-3.862ZM191.514,21.867c-.041-.232-.063-.378-.167-.985l1.268-.087c0,.023.041.128.433,1.071h-1.534Z"/><path class="h" d="M203.163,22.642c.749,1.112,1.078,1.176,1.412,1.176.704,0,.997-.675.997-1.049,0-.314-.144-.524-.437-.884-.311-.419-1.308-1.823-1.971-3.542v-.401h.333c.682,0,.975,0,1.205-.146.248-.169.456-.438.456-.88,0-.401-.189-.629-.293-.734-.289-.296-.496-.296-1.367-.296h-.333v-2.243c0-.734,0-.984-.122-1.217-.19-.315-.541-.46-.853-.46-.334,0-.663.146-.853.46-.122.233-.122.461-.122,1.217v2.243h-1.082c-.682,0-.975,0-1.2.15-.253.164-.46.438-.46.88,0,.397.189.629.293.734.289.292.496.292,1.367.292h.726c-.474,1.887-1.033,3.902-2.156,5.835-.352.629-.478.857-.478,1.131,0,.67.645,1.071,1.078,1.071.541,0,.916-.232,1.913-2.539v6.232c0,.711,0,.962.122,1.194.19.337.542.483.853.483.33,0,.663-.169.853-.483.122-.233.122-.461.122-1.194v-7.029ZM212.564,17.464v.816h-2.531v-.816h2.531ZM212.564,14.988v.88h-2.531v-.88h2.531ZM210.259,23.358h-2.26v-.419c0-.232.104-.419.352-.419h1.908v.839ZM212.316,22.519h2.053c.149,0,.334,0,.334.315v.524h-2.386v-.839ZM210.259,25.56h-2.26v-.716h2.26v.716ZM210.259,20.86h-2.738c-1.182,0-1.556.985-1.556,1.404v3.296c-.622,0-1.516,0-1.516.903,0,.88.893.88,1.516.88v2.348c0,.862,0,1.09.293,1.386.163.169.415.292.726.292.433,0,.704-.251.871-.461.144-.232.144-.524.144-1.217v-2.348h6.704v1.217c0,.647-.415.647-.871.647-.311,0-.623-.018-.934-.059-.086,0-.767-.087-.812-.087-.474,0-.871.419-.871.925,0,.333.185.752.663.921.356.105,1.245.233,2.138.233.623,0,1.746,0,2.368-.903.185-.274.33-.775.33-1.194v-1.7c.334,0,1.182-.023,1.182-.88,0-.884-.848-.903-1.182-.903v-3.191c0-.711-.415-1.509-1.493-1.509h-2.905v-.944h3.713c1.083,0,1.602,0,1.602-.821,0-.816-.501-.816-1.602-.816h-1.43v-.816h.582c.997,0,1.62,0,1.62-.798s-.623-.798-1.62-.798h-.582v-.88h1.268c.848,0,1.038,0,1.245-.128.248-.169.37-.442.37-.711,0-.274-.122-.547-.37-.716-.208-.128-.438-.128-1.245-.128h-1.268c0-.542,0-.839-.144-1.049-.167-.251-.438-.483-.871-.483-.356,0-.667.168-.875.483-.144.21-.144.483-.144,1.049h-2.531c0-.565,0-.839-.144-1.049-.248-.355-.541-.46-.83-.46-.519,0-.83.397-.893.611-.085.228-.085.397-.085.898h-1.264c-.852,0-1.037,0-1.227.128-.248.169-.37.442-.37.716,0,.269.104.542.37.711.189.128.415.128,1.227.128h1.264v.88h-.889c-.975,0-1.601,0-1.601.798s.627.798,1.601.798h.889v.816h-1.512c-1.082,0-1.619,0-1.619.816,0,.821.496.821,1.619.821h3.69v.944ZM212.316,24.844h2.386v.716h-2.386v-.716Z"/><path class="h" d="M53.403,36.651v.506c0,.365.23.593.51.661.275.064.609-.023.816-.269.181-.205.172-.711.172-.907v-3.387h.636v3.943c-.036.228-.162.725-.618,1.017-.343.219-.817.223-.952.182-.974-.046-1.2-.88-1.2-1.217v-.529h.636Z"/><path class="h" d="M59.254,35.297c-.014-.355-.379-.588-.826-.688-.226-.055-.469-.068-.704-.064-.23.023-.456.068-.636.16-.374.178-.546.497-.591.702l-.018.314h.532c.014-.164.054-.629.672-.661.384-.036.925.114.974.369v.424c0,.191-.212.26-.284.274-.338.082-.672.018-1.313.21-.37.114-.708.346-.749.939-.045.706.451,1.162,1.241,1.121.541-.027.853-.305,1.132-.52.018.242.194.447.492.52l.474-.059v-.433c-.189.064-.397-.064-.397-.196v-2.412ZM58.663,37.198c0,.118-.37.725-1.141.706-.311-.005-.641-.173-.623-.615.005-.264.235-.438.338-.488.329-.15.965-.137,1.426-.319v.716Z"/><path class="h" d="M60.733,39.737v-1.878c.054.096.163.214.325.319.158.105.437.219.771.219s.713-.109,1.042-.465c.352-.36.514-1.039.456-1.682-.054-.656-.334-1.286-.862-1.555-.203-.1-.46-.15-.713-.15-.239,0-.465.05-.605.137-.239.146-.374.269-.492.419v-.451h-.492v5.087h.568ZM62.398,35.415c.442.606.352,1.627.054,2.042-.176.255-.469.36-.744.351-.275-.005-.55-.137-.704-.342-.189-.26-.496-1.208-.036-1.992.144-.232.406-.369.686-.388.28-.023.569.082.744.328Z"/><path class="h" d="M66.778,35.297c-.018-.355-.379-.588-.83-.688-.221-.055-.465-.068-.704-.064-.23.023-.451.068-.636.16-.37.178-.541.497-.587.702l-.022.314h.537c.013-.164.054-.629.668-.661.388-.036.929.114.975.369v.424c0,.191-.208.26-.284.274-.338.082-.668.018-1.308.21-.37.114-.708.346-.749.939-.045.706.447,1.162,1.241,1.121.541-.027.852-.305,1.132-.52.018.242.194.447.492.52l.474-.059v-.433c-.189.064-.397-.064-.397-.196v-2.412ZM66.188,37.198c0,.118-.374.725-1.146.706-.307-.005-.636-.173-.623-.615.009-.264.239-.438.338-.488.334-.15.97-.137,1.43-.319v.716Z"/><path class="h" d="M68.366,34.649v.451c.122-.173.271-.324.406-.392.167-.128.446-.168.704-.164.257.009.492.055.582.096.176.096.487.274.559.807v2.794h-.569v-2.498c.009-.447-.316-.679-.708-.679-.474,0-.988.301-.974,1.267v1.91h-.568v-3.592h.568Z"/><path class="h" d="M76.392,34.709c.014-.292-.068-.574-.442-.807-.329-.196-.568-.191-.817-.191-1.137,0-1.34,1.062-.771,1.377.176.1.42.182.749.246l1.218.333c.428.15.821.634.839,1.117.05.998-.88,1.65-1.94,1.614-.65-.018-1.137-.1-1.579-.629-.33-.401-.343-.72-.356-1.108h.586c-.004.292.104.985.956,1.135.149.027.397.046.65.027.257-.027.519-.091.695-.242.32-.274.564-.848-.027-1.258-.289-.15-.695-.246-1.029-.319-.334-.077-.419-.096-.505-.123-.086-.027-.167-.064-.501-.178-.217-.077-.595-.296-.659-.916-.081-.807.46-1.614,1.66-1.614.411,0,.898.073,1.195.26.672.415.713,1.053.69,1.276h-.614Z"/><path class="h" d="M80.709,37.002c-.014.301-.095.561-.189.725-.28.474-.821.693-1.34.67-.523-.027-1.024-.287-1.245-.757-.144-.296-.257-.743-.244-1.222.013-.469.149-.975.505-1.386.284-.328.686-.474,1.069-.488.388-.004.758.11,1.002.324.28.178.401.574.442.989h-.564c-.059-.374-.14-.552-.379-.67-.099-.055-.275-.123-.487-.114-.217.014-.46.1-.695.374-.158.178-.253.529-.28.889-.027.365.013.734.131.966.217.429.568.57.88.556.316-.023.596-.201.677-.392.081-.15.149-.328.167-.465h.55Z"/><path class="h" d="M81.878,34.649h-.568v3.592h.568v-3.592ZM81.878,33.255h-.568v.711h.568v-.711Z"/><path class="h" d="M85.838,36.673c-.009-.666-.013-1.089-.401-1.614-.217-.273-.614-.479-1.056-.515-.437-.032-.92.105-1.304.542-.293.328-.433.852-.442,1.381-.005.524.122,1.048.361,1.354.302.392.785.574,1.25.574.474,0,.934-.178,1.2-.533.217-.255.271-.497.316-.72h-.573c-.081.205-.244.757-.947.757-.415,0-.645-.232-.798-.447-.203-.319-.217-.529-.199-.78h2.594ZM83.267,36.168c.013-.365.216-.752.302-.834.189-.26.501-.342.78-.315.284.027.541.155.613.315.09.096.28.497.257.834h-1.953Z"/><path class="h" d="M87.169,34.649v.451c.122-.173.271-.324.406-.392.172-.128.447-.168.704-.164.257.009.496.055.582.096.176.096.487.274.564.807v2.794h-.568v-2.498c.004-.447-.32-.679-.713-.679-.474,0-.988.301-.974,1.267v1.91h-.568v-3.592h.568Z"/><path class="h" d="M93.12,37.002c-.013.301-.095.561-.189.725-.28.474-.821.693-1.34.67-.523-.027-1.024-.287-1.245-.757-.144-.296-.257-.743-.244-1.222.014-.469.149-.975.505-1.386.284-.328.686-.474,1.069-.488.388-.004.758.11,1.001.324.28.178.402.574.442.989h-.564c-.059-.374-.14-.552-.379-.67-.099-.055-.275-.123-.487-.114-.217.014-.46.1-.695.374-.158.178-.253.529-.28.889-.027.365.014.734.131.966.216.429.569.57.88.556.316-.023.595-.201.677-.392.081-.15.149-.328.167-.465h.55Z"/><path class="h" d="M96.747,36.673c-.009-.666-.013-1.089-.402-1.614-.217-.273-.613-.479-1.056-.515-.438-.032-.92.105-1.304.542-.293.328-.433.852-.442,1.381-.004.524.122,1.048.361,1.354.302.392.785.574,1.25.574.474,0,.934-.178,1.2-.533.217-.255.271-.497.316-.72h-.573c-.081.205-.244.757-.947.757-.415,0-.645-.232-.798-.447-.203-.319-.217-.529-.198-.78h2.594ZM94.175,36.168c.013-.365.217-.752.302-.834.189-.26.501-.342.78-.315.284.027.541.155.613.315.09.096.28.497.257.834h-1.953Z"/><path class="h" d="M102.133,35.297c-.013-.355-.379-.588-.826-.688-.226-.055-.469-.068-.704-.064-.23.023-.456.068-.636.16-.374.178-.541.497-.591.702l-.018.314h.532c.013-.164.054-.629.672-.661.384-.036.925.114.975.369v.424c0,.191-.212.26-.284.274-.338.082-.672.018-1.313.21-.365.114-.704.346-.744.939-.05.706.447,1.162,1.236,1.121.541-.027.853-.305,1.132-.52.018.242.194.447.492.52l.474-.059v-.433c-.189.064-.397-.064-.397-.196v-2.412ZM101.542,37.198c0,.118-.37.725-1.141.706-.311-.005-.636-.173-.622-.615.004-.264.235-.438.338-.488.329-.15.965-.137,1.425-.319v.716Z"/><path class="h" d="M103.721,34.649v.451c.122-.173.271-.324.406-.392.172-.128.447-.168.704-.164.257.009.496.055.582.096.176.096.487.274.564.807v2.794h-.568v-2.498c.004-.447-.32-.679-.713-.679-.474,0-.988.301-.975,1.267v1.91h-.568v-3.592h.568Z"/><path class="h" d="M109.225,33.255v1.833c-.054-.096-.162-.219-.325-.324-.158-.1-.442-.219-.776-.219-.329-.004-.704.11-1.042.465-.352.365-.514,1.039-.451,1.691.054.656.329,1.286.862,1.555.203.096.465.141.708.141s.474-.046.609-.137c.203-.123.379-.301.487-.428v.415h.497v-4.992h-.569ZM107.556,37.531c-.437-.611-.347-1.632-.05-2.047.18-.255.465-.365.744-.351.275.009.551.132.699.342.189.26.496,1.213.036,1.992-.135.232-.406.369-.681.392-.28.018-.564-.082-.749-.328Z"/><polygon class="h" points="113.849 33.82 112.225 33.82 112.225 33.255 116.096 33.255 116.096 33.82 114.485 33.82 114.485 38.242 113.849 38.242 113.849 33.82"/><path class="h" d="M119.691,36.673c-.009-.666-.014-1.089-.401-1.614-.216-.273-.614-.479-1.056-.515-.437-.032-.92.105-1.303.542-.294.328-.434.852-.442,1.381-.005.524.122,1.048.361,1.354.302.392.785.574,1.249.574.474,0,.934-.178,1.201-.533.216-.255.27-.497.315-.72h-.573c-.081.205-.244.757-.948.757-.415,0-.645-.232-.798-.447-.203-.319-.217-.529-.199-.78h2.594ZM117.119,36.168c.014-.365.217-.752.302-.834.189-.26.501-.342.781-.315.284.027.541.155.614.315.09.096.28.497.257.834h-1.954Z"/><path class="h" d="M123.21,37.002c-.014.301-.095.561-.189.725-.28.474-.821.693-1.34.67-.523-.027-1.024-.287-1.245-.757-.144-.296-.262-.743-.244-1.222.013-.469.149-.975.505-1.386.285-.328.686-.474,1.07-.488.388-.004.758.11,1.001.324.28.178.401.574.442.989h-.564c-.059-.374-.14-.552-.379-.67-.099-.055-.275-.123-.487-.114-.217.014-.46.1-.695.374-.158.178-.252.529-.28.889-.027.365.014.734.131.966.216.429.568.57.879.556.316-.023.596-.201.677-.392.081-.15.149-.328.167-.465h.55Z"/><path class="h" d="M123.837,33.255h.568v1.823c.117-.137.325-.319.609-.438.144-.055.307-.096.483-.096s.37.037.573.123c.523.187.596.734.582.843v2.731h-.569v-2.452c.027-.456-.189-.579-.297-.629-.23-.1-.42-.128-.6-.096-.176.036-.352.137-.564.31-.122.123-.217.219-.217.533v2.334h-.568v-4.987Z"/><path class="h" d="M128.167,34.649v.451c.122-.173.271-.324.406-.392.171-.128.447-.168.704-.164.257.009.497.055.582.096.176.096.487.274.564.807v2.794h-.568v-2.498c.004-.447-.32-.679-.713-.679-.474,0-.988.301-.975,1.267v1.91h-.568v-3.592h.568Z"/><path class="h" d="M131.411,37.69c.303.515.826.707,1.326.707s1.02-.191,1.327-.707c.203-.346.275-.793.275-1.222,0-.424-.072-.871-.275-1.217-.307-.515-.826-.707-1.327-.707s-1.024.191-1.326.707c-.203.346-.279.793-.279,1.217,0,.429.077.875.279,1.222ZM132.737,37.822c-.325,0-.677-.164-.839-.547-.108-.269-.185-.533-.185-.807,0-.269.077-.533.144-.802.176-.41.555-.574.88-.547.325,0,.677.164.839.547.108.269.181.533.181.802,0,.274-.073.538-.181.807-.163.383-.515.547-.839.547Z"/><rect class="g" x="135.111" y="33.255" width=".568" height="4.987"/><path class="h" d="M136.676,37.69c.302.515.825.707,1.326.707.497,0,1.02-.191,1.327-.707.203-.346.275-.793.275-1.222,0-.424-.072-.871-.275-1.217-.307-.515-.83-.707-1.327-.707-.501,0-1.024.191-1.326.707-.208.346-.28.793-.28,1.217,0,.429.072.875.28,1.222ZM138.002,37.822c-.329,0-.677-.164-.839-.547-.108-.269-.185-.533-.185-.807,0-.269.077-.533.14-.802.175-.41.555-.574.884-.547.325,0,.677.164.835.547.113.269.185.533.185.802,0,.274-.072.538-.185.807-.158.383-.51.547-.835.547Z"/><path class="h" d="M142.648,34.649v.438c-.293-.369-.631-.529-1.015-.542-.604-.018-1.069.465-1.145.561-.262.378-.411.985-.384,1.568.018.575.216,1.131.636,1.4.275.228.528.305.749.324.541.009.947-.342,1.159-.588,0,.328-.004.438-.072.752-.063.255-.09.397-.428.574-.171.068-.347.096-.515.096-.162,0-.311-.027-.442-.082-.379-.164-.365-.369-.388-.497h-.578c.019.278.1.729.749.984.257.11.545.123.803.1.248-.032.469-.1.591-.141.745-.242.826-1.103.849-1.965v-2.981h-.569ZM142.337,37.576c-.198.214-.46.306-.717.283-.267-.018-.515-.15-.686-.392-.18-.269-.234-.629-.221-.966.014-.333.095-.647.167-.807.189-.41.519-.524.812-.52.293.009.564.146.632.242.402.415.469,1.659.014,2.161Z"/><path class="h" d="M146.912,34.649l-1.611,4.417c-.104.296-.297.488-.491.575-.181.077-.334.105-.47.096-.135,0-.239-.041-.311-.087v-.529c.14.055.289.082.42.055.135-.027.248-.123.315-.315l.212-.565-1.164-3.647h.6l.902,2.717.988-2.717h.609Z"/><path class="h" d="M150.259,36.751h1.89l.501,1.491h.708l-1.733-4.987h-.776l-1.796,4.987h.677l.528-1.491ZM151.233,34.034l.726,2.179h-1.53l.803-2.179Z"/><path class="h" d="M156.187,34.649v.438c-.289-.369-.627-.529-1.015-.542-.6-.018-1.065.465-1.141.561-.266.378-.415.985-.388,1.568.023.575.216,1.131.636,1.4.28.228.528.305.753.324.541.009.948-.342,1.155-.588,0,.328-.005.438-.072.752-.063.255-.086.397-.424.574-.171.068-.347.096-.519.096-.158,0-.311-.027-.437-.082-.379-.164-.366-.369-.393-.497h-.578c.022.278.104.729.753.984.257.11.541.123.798.1.248-.032.474-.1.596-.141.745-.242.826-1.103.844-1.965v-2.981h-.568ZM155.88,37.576c-.198.214-.464.306-.717.283-.267-.018-.519-.15-.686-.392-.181-.269-.239-.629-.226-.966.013-.333.095-.647.171-.807.189-.41.515-.524.812-.52.289.009.56.146.627.242.401.415.469,1.659.018,2.161Z"/><path class="h" d="M160.689,36.673c-.009-.666-.013-1.089-.401-1.614-.212-.273-.613-.479-1.056-.515-.437-.032-.92.105-1.304.542-.293.328-.433.852-.442,1.381-.005.524.122,1.048.361,1.354.302.392.785.574,1.25.574.474,0,.934-.178,1.2-.533.216-.255.271-.497.315-.72h-.573c-.081.205-.244.757-.948.757-.415,0-.645-.232-.798-.447-.203-.319-.217-.529-.198-.78h2.594ZM158.118,36.168c.013-.365.216-.752.302-.834.189-.26.5-.342.78-.315.284.027.541.155.614.315.09.096.28.497.261.834h-1.957Z"/><path class="h" d="M162.02,34.649v.451c.122-.173.271-.324.406-.392.172-.128.447-.168.704-.164.257.009.496.055.582.096.176.096.487.274.564.807v2.794h-.568v-2.498c.004-.447-.32-.679-.713-.679-.474,0-.988.301-.974,1.267v1.91h-.568v-3.592h.568Z"/><path class="h" d="M167.97,37.002c-.013.301-.094.561-.189.725-.28.474-.821.693-1.34.67-.523-.027-1.024-.287-1.245-.757-.144-.296-.257-.743-.244-1.222.014-.469.149-.975.505-1.386.284-.328.685-.474,1.069-.488.388-.004.758.11,1.001.324.28.178.402.574.442.989h-.564c-.059-.374-.14-.552-.378-.67-.1-.055-.275-.123-.487-.114-.217.014-.46.1-.695.374-.158.178-.253.529-.28.889-.027.365.013.734.13.966.217.429.569.57.88.556.315-.023.595-.201.677-.392.081-.15.149-.328.167-.465h.55Z"/><path class="h" d="M171.358,34.649l-1.611,4.417c-.099.296-.298.488-.492.575-.176.077-.334.105-.469.096-.135,0-.234-.041-.311-.087v-.529c.144.055.293.082.42.055.135-.027.252-.123.32-.315l.207-.565-1.164-3.647h.604l.898,2.717.988-2.717h.609Z"/><path class="h" d="M52.734,7.386c.296-.518.867-1.547,1.17-2.86h-.441c-.195,0-.289,0-.563.029l-.108-.263c.209.014.433.029.729.029h.419v-1.182c-.303.029-.469.044-1.069.066l-.015-.087c.599-.233,1.704-.664,2.101-1.021l.614.613c.036.037.094.102.094.175,0,.029-.022.087-.094.087s-.13-.029-.209-.066c-.224.059-.383.095-.686.139v1.277h.296l.238-.365c.043-.066.065-.102.116-.102.036,0,.094.051.123.08l.404.409c.014.015.029.029.043.051l.029-.051c.173.051,1.386.38,1.386,1.153,0,.241-.188.452-.419.452-.217,0-.274-.146-.411-.518-.108-.277-.404-.744-.571-.97-.022.066-.072.066-.166.066h-1.069v.365c.116.044,1.04.394,1.04,1.094,0,.387-.217.46-.332.46-.173,0-.181-.044-.311-.445-.115-.365-.209-.606-.397-.868v2.131c0,.131.022,1.145.022,1.306,0,.19-.108.321-.549.321-.217,0-.224-.08-.224-.277,0-.014.015-.956.015-1.138v-1.488c-.484.897-.939,1.284-1.141,1.452l-.065-.051ZM58.742,5.956l.13-.496c.007-.037.036-.131.094-.131.022,0,.058.037.108.073l.448.357c.043.029.08.066.08.117,0,.066-.072.08-.123.095l-.874.226v1.087c0,.204.015,1.08.015,1.262,0,.139,0,.321-.563.321-.238,0-.253-.088-.253-.256,0-.124.014-1.116.014-1.226v-.978l-1.784.467c-.245.066-.375.11-.541.168l-.166-.226c.318-.058.411-.087.708-.16l1.784-.46v-3.284c0-.401-.014-.657-.036-.861l.903.11c.065.007.166.022.166.109s-.058.117-.246.19v3.532l.137-.037ZM56.005,2.468c.188.037,1.401.343,1.401,1.117,0,.255-.181.46-.404.46-.209,0-.231-.058-.484-.569-.217-.43-.375-.671-.563-.934l.05-.073Z"/><path class="h" d="M63.829,4.927c-.152,0-.274,0-.563.029l-.108-.263c.209.014.433.029.729.029h2.231l.282-.328c.051-.059.08-.088.123-.088.043,0,.072.015.152.08l.289.241c.101-.212.209-.46.267-.657h-4.311c.014.066.036.175.036.329,0,.525-.26.97-.679.97-.282,0-.397-.204-.397-.328,0-.146.065-.226.253-.452.361-.453.455-.839.52-1.094l.087.007c.043.102.087.204.13.365h3.018c.303-.503.599-.993.809-1.678l.867.445c.181.095.181.132.181.168,0,.11-.123.102-.303.088-.412.372-.765.686-1.242.978h.996l.311-.358c.029-.037.065-.08.108-.08.043,0,.101.051.13.08l.65.584c.051.051.087.087.087.146,0,.124-.043.124-.455.131-.383.241-.426.27-.859.518l.116.102c.065.058.108.087.108.153,0,.11-.05.11-.455.131-.123.044-.621.314-.794.409-.159.087-.296.146-.397.19.065.015.145.029.145.11,0,.087-.022.095-.26.19v.343h1.567l.361-.547c.051-.073.08-.088.116-.088.029,0,.058.007.13.066l.672.577c.043.037.065.066.065.11,0,.087-.087.087-.145.087h-2.766v.715c0,.117.007.635.007.744,0,.577-.173.744-1.126.817-.036-.562-.282-.657-1.112-.956v-.08l1.199.022c.173,0,.195-.058.195-.153v-1.109h-2.332c-.137,0-.274,0-.563.029l-.101-.263c.202.015.433.029.722.029h2.275c0-.066,0-.409-.029-.759l.65.08c.484-.533.542-.591.693-.81h-2.275ZM62.724,2.198c1.401.306,1.401.941,1.401,1.043,0,.285-.209.467-.411.467-.195,0-.224-.066-.477-.591-.043-.095-.282-.562-.556-.847l.043-.073ZM64.363,2.038c.462.161.679.233.924.416.26.197.426.496.426.722,0,.256-.166.503-.419.503-.231,0-.282-.153-.412-.518-.029-.095-.224-.65-.57-1.058l.05-.066Z"/><path class="h" d="M75.848,4.475c.079-.037.173-.073.318-.073.462,0,.838.474.838.73,0,.226-.202.27-.571.357-.845.197-1.423.445-1.675.554,0,.044.043.503.043.781,0,.08,0,.503-.419.503-.354,0-.354-.277-.354-.409,0-.087.014-.467.007-.547-.354.19-.975.518-.975.949,0,.277.26.467,1.141.467.397,0,.758-.058,1.105-.117.072-.014.383-.066.433-.066.217,0,.621.197.621.474s-.166.409-1.791.409c-.513,0-1.928,0-1.928-1,0-.686.693-1.146,1.379-1.561-.022-.387-.051-.824-.534-.824-.498,0-.874.43-1.105.832-.274.481-.311.54-.484.54-.195,0-.354-.19-.354-.416,0-.248.094-.343.527-.766.253-.248.571-.664.852-1.073-.852.073-1.047-.409-1.184-.73l.065-.058c.246.182.549.219.845.219.202,0,.506-.029.708-.051.145-.219.412-.635.412-.81,0-.131-.101-.256-.347-.314l.022-.08c.08-.051.195-.117.376-.117.339,0,.802.277.802.525,0,.131-.065.197-.209.35-.087.087-.224.255-.282.328.289-.066.484-.11.7-.204.361-.16.404-.175.491-.175.231,0,.534.146.534.35,0,.255-.332.387-2.231.686-.101.117-.469.577-.7.868.311-.139.477-.204.744-.204.809,0,.967.599,1.011.759.383-.197.773-.394,1.163-.577.18-.087.267-.124.267-.219,0-.044-.022-.146-.274-.204l.015-.088Z"/><path class="h" d="M86.611,8.006c-.267.146-.469.277-.672.847-1.502-.328-2.325-.876-2.672-1.102-1.191.722-2.368,1-3.394,1.131l-.022-.08c.866-.307,1.863-.737,2.888-1.474-.267-.256-1.011-.985-1.307-2.189h-.325c-.144,0-.274,0-.563.029l-.101-.263c.202.015.426.029.722.029h1.596v-1.401h-2.253c-.145,0-.274,0-.563.029l-.108-.263c.209.014.441.029.729.029h2.195v-.409c0-.54-.014-.7-.029-.861l.96.095c.072,0,.181.022.181.11s-.08.117-.274.175v.89h1.617l.361-.547c.043-.066.08-.087.116-.087.043,0,.072.014.13.066l.657.569c.043.044.065.073.065.109,0,.095-.094.095-.145.095h-2.802v1.401h1.011l.289-.329c.058-.066.087-.08.123-.08.043,0,.072.022.123.073l.578.525c.065.058.108.102.108.175,0,.066-.029.102-.152.138-.043.015-.253.051-.296.066-.765,1.16-1.112,1.489-1.466,1.78.657.277,1.538.547,2.694.642v.08ZM81.628,5.139c.411,1.051,1.22,1.569,1.603,1.802.621-.554,1.004-1.102,1.386-1.802h-2.989Z"/><path class="h" d="M90.377,4.015c.072.219.224.285.382.285.274,0,1.365-.233,1.726-.314.122-.029.642-.197.751-.197.202,0,.607.299.607.547,0,.146-.043.168-.441.431-.477.321-1.235,1.138-1.43,1.35.108-.014.195-.022.267-.022.787,0,.802.554.809.905.015.584.022.781.541.781.159,0,.39-.014.679-.087.065-.015.347-.088.39-.088.238,0,.556.204.556.474,0,.153-.108.248-.238.292-.368.109-1.04.109-1.184.109-1.293,0-1.437-.409-1.437-1.343,0-.525,0-.773-.325-.773-.13,0-.209.051-.267.095-.267.263-.621.606-1.372,1.554-.354.445-.39.489-.548.489-.26,0-.383-.27-.383-.482,0-.226.051-.27.491-.657.946-.825,2.759-2.817,2.759-2.897,0-.029-.022-.044-.065-.044-.115,0-.816.241-.997.299-.152.051-.787.372-.931.372-.26,0-.585-.401-.585-.686,0-.19.08-.292.159-.401l.087.007ZM91.142,2.184c.347.328.643.357,1.329.409.888.073.917.489.917.554,0,.204-.188.263-.346.263-.087,0-.47-.037-.549-.037-.115,0-.217.015-.455.059-.137.029-.455.087-.548.102l-.036-.08c.058-.029.311-.168.368-.197.079-.051.122-.073.122-.11,0-.014-.108-.051-.173-.073-.513-.16-.635-.54-.7-.846l.072-.044Z"/><path class="h" d="M97.146,6.474c1.408.35,1.935,1.109,1.935,1.562,0,.299-.173.562-.448.562-.246,0-.311-.153-.513-.606-.361-.824-.823-1.255-1.018-1.445l.043-.073Z"/><path class="h" d="M112.682,7.394c-.311.16-.563.438-.679.948-.78-.401-1.935-1.291-2.448-2.955v1.926c0,.124.022,1.109.022,1.233,0,.117,0,.321-.6.321-.217,0-.238-.066-.238-.226,0-.19.015-1.058.015-1.233v-1.291c-.433.606-1.242,1.591-2.924,2.247l-.043-.08c.332-.27,1.762-1.437,2.512-2.962h-1.805c-.145,0-.274,0-.571.029l-.101-.263c.21.015.434.029.723.029h2.209v-1.598h-1.755c-.145,0-.274,0-.571.029l-.101-.263c.209.015.433.029.729.029h1.697v-.387c0-.292,0-.591-.036-.868l.932.109c.065.007.18.022.18.102,0,.073-.036.11-.274.183v.861h1.17l.368-.562c.036-.044.065-.087.115-.087.036,0,.065.014.137.08l.686.577c.051.044.065.073.065.11,0,.087-.101.087-.152.087h-2.39v1.598h1.632l.382-.577c.036-.051.058-.087.108-.087.051,0,.087.029.13.073l.693.598c.043.037.072.058.072.11,0,.087-.101.087-.152.087h-2.73c.845,1.277,2.202,1.81,2.99,1.985v.088Z"/><path class="h" d="M118.57,7.313c0,.153.022,1.124.022,1.24,0,.277-.26.321-.585.321-.231,0-.246-.073-.246-.219,0-.073.022-1.211.022-1.248v-1.029c-1.018,1.357-2.202,1.904-2.931,2.167l-.043-.08c1.675-1.335,2.202-2.218,2.52-2.838h-1.812c-.145,0-.282.007-.571.029l-.101-.263c.209.022.433.029.722.029h2.216v-1.904h-1.87c-.145,0-.274,0-.563.029l-.108-.263c.209.015.441.029.729.029h1.812v-.38c0-.452-.014-.649-.036-.868l.917.11c.065.007.188.022.188.102,0,.088-.029.102-.282.183v.854h1.293l.368-.569c.036-.058.058-.087.115-.087.043,0,.072.014.137.073l.678.591c.036.037.072.058.072.11,0,.087-.108.087-.152.087h-2.513v1.904h1.748l.339-.511c.051-.073.079-.08.115-.08.029,0,.058,0,.13.066l.621.533c.043.037.065.073.065.109,0,.088-.101.088-.144.088h-2.701c1.004,1.423,2.549,1.81,2.961,1.897v.087c-.542.263-.693.883-.7.92-1.177-.591-2.036-1.649-2.434-2.904v1.685ZM115.827,3.643c.527.183,1.35.613,1.35,1.073,0,.343-.217.562-.448.562-.188,0-.231-.117-.346-.43-.238-.627-.477-.956-.607-1.131l.051-.073ZM120.563,3.986c.115.066.152.117.152.168,0,.102-.108.102-.296.102-.347.43-1.033.985-1.379,1.16l-.058-.066c.188-.343.614-1.131.78-1.802l.801.438Z"/><path class="h" d="M124.033,5.365c.051.058.145.175.325.175.217,0,.303-.095.823-.686.758-.854.989-1.117,1.408-1.117.354,0,.448.088,1.379,1.051,1.177,1.204,1.524,1.379,2.145,1.678.202.095.434.336.434.657,0,.343-.253.401-.347.401-.823,0-2.375-1.919-2.982-2.663-.455-.555-.498-.613-.65-.613-.137,0-.202,0-.722.795-.123.197-.73,1.219-.766,1.262-.043.059-.159.197-.354.197-.419,0-.794-.511-.794-.876,0-.029,0-.051.022-.219l.079-.044Z"/><path class="h" d="M133.301,3.949c.079.124.181.299.462.299.159,0,.282-.037.513-.11,1.53-.481,2.058-.649,2.859-.649.924,0,2.08.423,2.08,1.868,0,2.298-2.593,2.539-4.001,2.517l-.007-.087c.852-.139,3.141-.562,3.141-2.605,0-1.043-.614-1.394-1.235-1.394-.917,0-2.029.554-2.708,1.16-.238.212-.34.285-.47.285-.318,0-.787-.482-.787-.927,0-.138.043-.248.072-.336l.08-.022Z"/><path class="h" d="M144.064,2.373c.108-.037.209-.066.339-.066.419,0,.787.35.787.562,0,.095-.015.124-.209.38-.051.066-.087.124-.123.19.13-.029.253-.073.368-.117.13-.044.332-.124.397-.124.202,0,.491.153.491.343,0,.204-.101.263-1.567.533-.195.43-1.033,2.335-1.22,2.714-.253.518-.411.518-.498.518-.274,0-.354-.328-.354-.474,0-.183.043-.241.404-.788.173-.263.607-1.014.997-1.853-.051.007-.325.051-.571.051-.556,0-.657-.343-.766-.715l.072-.044c.101.08.253.204.65.204.173,0,.433-.015.874-.087.072-.19.231-.577.231-.759,0-.233-.231-.336-.325-.387l.022-.08ZM146.028,4.059c.245-.073.39-.117.65-.117.722,0,1.466.416,1.466.897,0,.19-.13.336-.304.336-.094,0-.122-.014-.354-.153-.13-.073-.224-.102-.354-.102-.607,0-.607.445-.607.657,0,.197.015.314.108,1.321.96.387,1.184.7,1.184,1.007,0,.204-.123.387-.318.387-.13,0-.224-.073-.332-.175-.318-.284-.347-.307-.534-.438-.123.606-.65.832-1.293.832-1.278,0-1.278-.839-1.278-.934,0-.445.354-.934,1.307-.934.26,0,.433.029.578.059-.015-.526-.015-.584-.015-.679,0-.606.079-1.051.982-1.284.072-.022.217-.058.217-.095,0-.117-.498-.379-1.119-.496l.015-.087ZM145.053,7.16c-.397,0-.664.168-.664.372,0,.241.311.387.759.387.801,0,.808-.452.808-.606-.318-.117-.671-.153-.903-.153Z"/><path class="h" d="M154.379,2.308c.166-.044.274-.066.368-.066.404,0,.931.401.931.847,0,.212-.058.248-.556.577-1.083.708-1.603,1.051-1.697,1.109-.368.248-.837.569-.837.73,0,.146.188.256.484.431,1.466.861,2.751,1.605,2.751,2.24,0,.307-.231.54-.448.54-.195,0-.246-.066-.715-.693-.448-.598-1.466-1.35-1.712-1.51-.628-.416-.96-.642-.96-.985s.18-.489,1.011-1.138c.441-.343,1.199-.963,1.43-1.189.188-.183.274-.307.274-.43,0-.219-.245-.336-.339-.38l.015-.08ZM155.52,3.687c.78.212,1.336.73,1.336,1.087,0,.197-.13.336-.253.336-.13,0-.152-.037-.354-.394-.231-.409-.433-.649-.787-.948l.058-.08ZM156.119,3.205c.773.131,1.415.628,1.415,1.022,0,.168-.108.299-.231.299-.13,0-.152-.037-.375-.365-.238-.35-.52-.635-.86-.876l.051-.08Z"/></g></svg>