<?xml version="1.0" encoding="UTF-8"?><svg id="a" xmlns="http://www.w3.org/2000/svg" width="157" height="63.472799999999552" viewBox="0 0 157 63.472799999999552"><path d="M0,63.472799999997733s28.347086997366205-23.853863997077497,73.337867787995492-12.097007141574068c44.651064821464388,11.667780216488609,70.541617090138971.60394916729274,70.541617090138971.60394916729274,0,0-33.211861369392864,17.611550332872866-76.992181436862666,6.11762374191494C20.069778419117938,45.806961125554153,0,63.472799999997733,0,63.472799999997733Z" style="fill:#d5e9cd; fill-rule:evenodd;"/><path d="M12.969011084112935,62.865419796886272s32.395839463917582-27.05688794987509,73.505863075199159-11.033255742586334c42.999037999317807,16.759871692680463,70.525021683846717,1.625225211357247,70.525021683846717,1.625225211357247,0,0-20.459570137762057,16.642869027884444-64.068946449844589,4.516155196351974-46.634290341269661-12.968186225902173-79.961938309201287,4.891875334877113-79.961938309201287,4.891875334877113Z" style="fill:#70b92b; fill-rule:evenodd;"/><path d="M22.793546277776841,18.666946560826545h74.604886830798932c3.44952535354787,0,6.919173054709972.109222490420507,10.367483128729873,0,.050579727052536-.00160207279805.101444209887632,0,.152063226587416,0l-4.343083325820771-1.520079164039998c-1.071943286144233,7.117921677268896-2.143886572679548,14.235843354474127-3.215829859020232,21.35376503171392-.153372571454383,1.018425102300171-.306745142936052,2.036850204600341-.460117714364969,3.055275306907788-.082047257994418.544810498637162.972482174896868.96455963149856,1.272059654875193,1.074858284828224.927993444740423.341669297909903,2.094283102491318.460532794633764,3.071023670947397.445220879209955,1.042236634779329-.016338667321179,4.118072807168573-.025963506024709,4.343083325820771-1.520079164038179,1.071943286144233-7.117921677267077,2.143886572677729-14.235843354479584,3.215829859020232-21.35376503171392.153372571454383-1.018425102303809.30674514293969-2.036850204598522.460117714364969-3.055275306907788.081122652271006-.538670928390275-.971231032710421-.97342902881428-1.272059654875193-1.074858284831862-.982514724217253-.331270797270918-2.039361372693747-.445220879206317-3.071023670947397-.445220879206317H33.313092633097767c-3.455127159420954,0-6.912491055978535-.036450257253819-10.367483128731692,0-.050675736043559.000534630347829-.101383123399501,0-.152063226589235,0-.955652378939703,0-4.266391506151194.057707272992047-4.343083325820771,1.520079164038179-.073976969526484,1.410604694026915,3.658144071961942,1.520079164039998,4.343083325820771,1.520079164039998h0Z" style="fill:#595757;"/><path d="M17.432571318919145,29.672232846793122c-.604528229790958,4.0146738416679-1.209056459591011,8.029347683333981-1.813584689383788,12.0440215250037-.081113411411934.538674415774949.971220611843819.973425515241615,1.272059654875193,1.074858284826405.982514724217253.331270797274556,2.039361372695566.445220879206317,3.071023670947397.445220879206317h20.846799437313166c.990088082335205,0,2.129873461130046-.09870751400922,3.071023670947397-.445220879206317.390727668855106-.143858395818825,1.272059654875193-.500561887158256,1.272059654875193-1.074858284826405,0-1.425648420554353-3.589887809695938-1.520079164039998-4.34308332582259-1.520079164039998h-20.846799437313166c1.447694441940257.506693054676361,2.895388883882333,1.01338610935818,4.343083325820771,1.520079164039998.604528229790958-4.014673841669719,1.209056459594649-8.0293476833358,1.813584689383788-12.0440215250037.082037942926036-.544814232418503-.972471686853169-.964555770009611-1.272059654875193-1.0748582848355-.927993444740423-.341669297904446-2.094283102491318-.460532794626488-3.071023670947397-.445220879206317-1.042213650984195.016338307013939-4.118100322039027.025966340857849-4.343083325820771,1.520079164041817h0Z" style="fill:#595757;"/><path d="M49.137078796497008,29.672232846793122c-.604528229754578,4.014673841671538-1.209056459627391,8.029347683328524-1.813584689383788,12.0440215250037-.081113411408296.538674415774949.971220611838362.973425515241615,1.272059654875193,1.074858284826405.982514724217253.331270797274556,2.039361372693747.445220879206317,3.071023670947397.445220879206317h21.281107758924918c.896939747130091,0,4.343083325820771-.072743113276374,4.343083325820771-1.520079164032722,0-1.425648420554353-3.589887809694119-1.520079164039998-4.343083325820771-1.520079164039998h-21.281107758924918c1.447694441940257.506693054676361,2.895388883882333,1.01338610935818,4.343083325820771,1.520079164039998.604528229756397-4.014673841675176,1.209056459625572-8.029347683332162,1.813584689385607-12.0440215250037.08203794291876-.544814232418503-.972471686849531-.964555770004154-1.272059654877012-1.0748582848355-.927993444740423-.341669297904446-2.094283102491318-.460532794626488-3.071023670947397-.445220879206317-1.042213650973281.016338307013939-4.118100322053579.025966340857849-4.343083325820771,1.520079164041817h0Z" style="fill:#595757;"/><path d="M35.64212398888958,9.690661943017403c-.998139072657068,6.628558328517101-1.996278145070391,13.257116657068764-2.994417217607406,19.885674985602236-.142209839379575.944403681982294-.284419678744598,1.88880736396095-.426629518140544,2.833211045934149-.082038950644346.544813828493716.972472821462361.964556187749622,1.272059654873374,1.074858284833681.927993444740423.341669297909903,2.094283102489499.460532794628307,3.071023670949216.445220879206317,1.042216137386276-.016338345985787,4.118097345462957-.025966034156227,4.343083325818952-1.520079164039998.998139072657068-6.628558328515282,1.99627814507221-13.257116657068764,2.994417217607406-19.885674985604055.142209839381394-.944403681976837.284419678744598-1.888807363955493.426629518142363-2.83321104593233.082038950640708-.544813828491897-.972472821462361-.964556187747803-1.272059654875193-1.074858284831862-.927993444740423-.341669297909903-2.094283102491318-.460532794631945-3.071023670945578-.445220879206317-1.042216137386276.016338345987606-4.118097345466595.025966034156227-4.34308332582259,1.520079164038179h0Z" style="fill:#595757;"/><path d="M67.346632267392124,9.690661943017403c-.998139072655249,6.628558328517101-1.99627814507221,13.257116657068764-2.994417217607406,19.885674985602236-.142209839379575.944403681982294-.284419678744598,1.88880736396095-.426629518142363,2.833211045934149-.082038950642527.544813828493716.97247282146418.964556187749622,1.272059654877012,1.074858284833681.927993444740423.341669297909903,2.094283102489499.460532794628307,3.071023670945578.445220879206317,1.042216137386276-.016338345985787,4.118097345462957-.025966034156227,4.34308332582259-1.520079164039998.998139072655249-6.628558328515282,1.99627814507221-13.257116657068764,2.994417217607406-19.885674985604055.142209839379575-.944403681976837.284419678744598-1.888807363955493.426629518142363-2.83321104593233.082038950642527-.544813828491897-.97247282146418-.964556187747803-1.272059654877012-1.074858284831862-.927993444740423-.341669297909903-2.094283102489499-.460532794631945-3.071023670945578-.445220879206317-1.042216137384457.016338345987606-4.118097345462957.025966034156227-4.34308332582259,1.520079164038179h0Z" style="fill:#595757;"/><path d="M54.418311527831975,24.962723580769307h21.281107758919461c.89693974713191,0,4.34308332582259-.072743113276374,4.34308332582259-1.520079164038179,0-1.425648420550715-3.589887809695938-1.520079164039998-4.34308332582259-1.520079164039998h-21.281107758919461c-.896939747130091,0-4.343083325820771.072743113276374-4.343083325820771,1.520079164039998,0,1.425648420548896,3.589887809694119,1.520079164038179,4.343083325820771,1.520079164038179h0Z" style="fill:#595757;"/><path d="M89.496357229085334,9.690661943017403c-1.405577204281144,9.334341824305739-2.811154409118899,18.668683648525985-4.216731613676529,28.003025472791705-.198629114454889,1.31908232758542-.397258228951614,2.63816465517084-.595887343370123,3.957246982765355-.08203877784581.544813897753556.972472626908711.964556116116,1.272059654877012,1.074858284828224.927993444740423.341669297909903,2.094283102489499.460532794631945,3.071023670947397.445220879209955,1.04221571103335-.016338339306458,4.118097855865926-.025966086748667,4.343083325820771-1.520079164038179,1.405577204281144-9.334341824309377,2.81115440911708-18.668683648527804,4.21673161367471-28.003025472789886.198629114458527-1.319082327590877.397258228953433-2.638164655176297.595887343370123-3.957246982767174.08203877784581-.544813897753556-.972472626906892-.964556116117819-1.272059654875193-1.074858284831862-.927993444740423-.341669297909903-2.094283102489499-.460532794631945-3.071023670945578-.445220879206317-1.042215711035169.016338339304639-4.118097855867745.025966086745029-4.34308332582259,1.520079164038179h0Z" style="fill:#595757;"/><path d="M117.077493056012827,16.884328009742603c-.914380751251883,6.072100656345356-1.828761502485577,12.144201312696168-2.743142253730184,18.216301969037886l-.389474607147349,2.586372268315245c-.082041825757187.544812676065703.972476058617758.964557379602411,1.272059654877012,1.074858284830043.927993444740423.341669297908084,2.094283102489499.460532794630126,3.071023670947397.445220879208136,1.042223231354001-.016338457200618,4.118088852974324-.025965159149564,4.343083325820771-1.520079164038179.914380751251883-6.072100656345356,1.828761502483758-12.14420131269253,2.743142253726546-18.216301969039705l.389474607147349-2.586372268313426c.082041825759006-.544812676063884-.97247605861412-.964557379606049-1.272059654873374-1.074858284831862-.927993444742242-.341669297909903-2.094283102489499-.460532794631945-3.071023670947397-.445220879206317-1.042223231354001.016338457195161-4.118088852974324.025965159145926-4.343083325820771,1.520079164038179h0Z" style="fill:#595757;"/><path d="M133.542171086244707,18.666946560826545h17.372333303286723c.990088082335205,0,2.129873461128227-.098707514016496,3.071023670949216-.445220879208136.390727668853287-.143858395818825,1.272059654871555-.500561887160075,1.272059654871555-1.074858284831862,0-1.425648420554353-3.589887809694119-1.520079164038179-4.343083325820771-1.520079164038179h-17.372333303286723c-.990088082335205,0-2.129873461128227.098707514012858-3.071023670945578.445220879206317-.390727668858744.143858395820644-1.272059654875193.500561887160075-1.272059654875193,1.074858284831862,0,1.425648420552534,3.589887809695938,1.520079164039998,4.343083325820771,1.520079164039998h0Z" style="fill:#595757;"/><path d="M139.194557472372253,10.464295375842994c-1.359952764869377,9.031789249305803-2.719905529991593,18.063578498571587-4.079858294986479,27.095367747855562-.192509233731471,1.278502365941677-.385018467481132,2.557004731874258-.577527701194413,3.835507097817754l4.343083325820771-1.52007916403636h-8.686166651645181c-.955652378939703,0-4.266391506151194.057707272990228-4.343083325820771,1.52007916403636-.073976969524665,1.410604694028734,3.658144071961942,1.52007916403636,4.343083325820771,1.52007916403636h8.686166651645181c1.027865502619534,0,4.122577292873757-.055642994462687,4.34308332582259-1.52007916403636,1.359952764869377-9.031789249305803,2.719905529991593-18.063578498567949,4.079858294986479-27.095367747857381.192509233731471-1.278502365938039.385018467481132-2.557004731874258.577527701194413-3.835507097815935.082035041228664-.544815395483965-.972468419775396-.964554567131927-1.272059654875193-1.074858284828224-.927993444740423-.341669297909903-2.094283102489499-.460532794633764-3.071023670945578-.445220879206317-1.042206491478282.016338194775017-4.118108892986129.025967224013584-4.34308332582259,1.520079164034541h0Z" style="fill:#595757;"/><path d="M119.593397841987098,11.903766913355867c-1.508179077629393,1.416149180049615-4.845664805876368.320649841942213-7.454468032126897-2.447240592437083-2.609232123753827-2.767412695215171-3.501610842988157-6.158318432680971-1.992997457040474-7.574511043567327,1.507788200136929-1.415758302548056,4.845664805874549-.32021553361119,7.454517077661876,2.447674900768106,2.609231919868762,2.76697838688051,3.501996105771468,6.15831843268279,1.992948411505495,7.574076735236304Z" style="fill:#70b92b; fill-rule:evenodd;"/><path d="M117.827611058717594,12.961289558217686c-1.790976341033456,0-4.069842366347075-1.153911753288412-6.004728614256237-3.206821674819366-1.809403829109215-1.91909125813072-2.89838062441595-4.239638506473057-2.843098160190493-6.056062331037538.027202482397115-.887590675623869.328184787627833-1.625128948357087.868724437837955-2.133201119577279,1.70761389497784-1.603191462550967,5.251834101463828-.521234662703137,8.067729779257206,2.466650903796108,1.809403829107396,1.918213758697675,2.899258123848995,4.238761007040011,2.843098160192312,6.055623581323744-.027202482398934.887590675623869-.327307288194788,1.625128948357087-.868724437836136,2.13320111957546-.534397154184262.501490925475082-1.248681691960883.740609520738872-2.063001165004607.740609520738872ZM111.899224895059888,1.69682934760749c-.589679618409718,0-1.092486793037097.160582396089012-1.455771557950357.501929675197971-.374692257530114.351438522575336-.574762128062503.865214440103955-.594944615000713,1.525971512517572-.049139968201416,1.594416468233248.950331885025662,3.676722620743021,2.606173313506588,5.433915233641528,2.399960946951978,2.54606460240575,5.532633919754517,3.659172632093032,6.840985573100625,2.428479678490476h0c.375569756964978-.351438522573517.575639627497367-.865214440102136.595822114437397-1.525971512517572.04826246877019-1.594855217947043-.950331885027481-3.676722620743021-2.607050812939633-5.433476483920458-1.733938877945548-1.839677559519259-3.850467508309521-2.930848103409517-5.385214015153906-2.930848103409517Z" style="fill:#231815;"/><rect x="116.558015433255079" y="5.697683585783008" width=".868432332097811" height="6.894721883963263" transform="translate(25.594162966041822 82.74672347674975) rotate(-43.313648190202599)" style="fill:#231815;"/><path d="M126.314145395583182,10.804228507757216c-1.886722210743756.235177962094895-3.639634027595093-1.891629942563668-3.91468148767126-4.750247387622949-.275916076720023-2.8588780300488,1.029962184698888-5.36653091154767,2.916727826272108-5.601491719475234,1.886287902421827-.234960807925745,3.639460304266322,1.892064250894691,3.914724918504362,4.750898850117665.276095715533302,2.85818313672462-1.029788461371936,5.366270326552694-2.916771257105211,5.600840256980518Z" style="fill:#70b92b; fill-rule:evenodd;"/><path d="M126.026965752800606,11.256746911250957c-.677429561626923,0-1.345206629497625-.250964837596257-1.949803738256378-.735344524147877-1.14250426066792-.914793158022803-1.931376250178801-2.56931833735689-2.110386134336295-4.425668386085817-.297472307502176-3.086165502900258,1.181114235681889-5.811239989463502,3.29588786718341-6.074051069399502.791504487804559-.100034935261647,1.583886475045801.14741990460243,2.291151017363518.71428453777844,1.142504260669739.915670657455848,1.930498750747574,2.569757087074322,2.109508634906888,4.425668386087636.298349806935221,3.085726753182826-1.180236736250663,5.810801239749708-3.29588786718341,6.073612319680251-.113197426750048.014478740631603-.227272352929504.021498736086869-.340469779677733.021498736086869ZM125.598746029907488.86934738308446c-.076342450598531,0-.152684901195244.004826246877201-.229027351793775.014039990914171-1.652331430750564.205773616840816-2.790448194260534,2.506577127958735-2.537728357798187,5.128984180963016.156194898921967,1.627761446650766.824849466225714,3.059840519934369,1.78834384273614,3.831162520798898.519479663837046.415495981129425,1.084589298148785.598893362450326,1.640046438702484.530009657024493h0c1.653208930183609-.205773616844453,2.79132569369358-2.506138378243122,2.537728357800006-5.128545431243765-.156194898923786-1.627322696938791-.823971966794488-3.059401770220575-1.787466343304914-3.831162520804355-.447524710401922-.358897267753491-.931026897520496-.544488397652458-1.411896586341754-.544488397652458Z" style="fill:#231815;"/><rect x="125.604640193671912" y="5.351419465324965" width=".869221102358111" height="5.206155415717832" transform="translate(-.181188479610782 12.14585442180417) rotate(-5.513121673043273)" style="fill:#231815;"/><path d="M41.30298197016964,62.538429053283835c.046644713738715-.34397219940729.062323244146683-.695544794631132.062323244146683-1.156997397998566v-4.228990526853522c0-.422451715101488-.015678530407968-.774067741160252-.062323244146683-1.141362298023523.367294547582787.015287653304767.648900063317342.023322357455982,1.148962664819919.023322357455982h1.712217127118492c1.54761427322228,0,2.400118077717707.742667248716316,2.400118077717707,2.10283408469877,0,1.39156732842639-.891504691773662,2.220314488658914-2.407761904180006,2.220314488658914h-1.235476882486182v1.000516105770657c0,.461452603367434.023756665194014.844469121871953.062757552472249,1.180363186291288h-1.680816635462179ZM44.086116556711204,59.028349109355986c.547098192733756,0,.867748026579648-.304537002808502.867748026579648-.844034813542748s-.304927872604821-.821103333577412-.867748026579648-.821103333577412h-1.165075503551634v1.66513814712016h1.165075503551634Z" style="fill:#70b92b; fill-rule:evenodd;"/><path d="M51.215287655950306,62.538429053283835c-.046640777247376-.24981415289767-.140368449541711-.570463994847159-.382973077996212-1.219364074557234-.250248454907705-.680300572159467-.343972190714339-.860147652678279-.539497797104559-1.031916598212774-.164125114733906-.148446588078514-.359650721125945-.211204142135102-.609464867713541-.211204142135102h-.797390078480021v1.282121628613822c0,.531897414914056.015287652920961.821146764410514.062366674981604,1.180363186291288h-1.680816635462179c.047082861192393-.359216421880774.062757552472249-.59378635230496.062757552472249-1.172285051301515v-4.206102477730383c0-.484774960828872-.015674691279855-.77402431032715-.062757552472249-1.148962693843714.343972190714339.015287653304767.633221532907555.023322357455982,1.165075503549815.023322357455982h2.032432652640637c1.266443065822386,0,2.001466469317165.656587337200108,2.001466469317165,1.782184242752919,0,.555219772371856-.156524719111985.992915709946828-.461452591713169,1.282165059450563-.195525606392039.17984708052245-.359650721124126.265926992038658-.74266722995344.391051222652095.398695039233644.125124230620713.578542115214077.304927880313699.828751099095825.859713344347256.117085563708315.250248461237788.226487829921098.516175453274627.578538155417846,1.360601144315297.085645601020587.218847968786577.179803645145512.413939271784329.374894943213803.828312851901501h-1.829263219793575ZM50.105369309241723,58.73909975985589c.46101828339124,0,.742623799125795-.281214645350701.742623799125795-.726988717908171,0-.43769593757861-.2502484549168-.664578610520039-.735023403496598-.664578610520039h-1.227007870214948v1.391567328428209h1.219407474585751Z" style="fill:#70b92b; fill-rule:evenodd;"/><path d="M58.595141518422679,62.593151903191028c-.33632836425204-.039000888267765-.617543002494131-.054722849907193-1.289765422685377-.054722849907193h-2.462480723386761c-.59422467494187,0-.813072638200538.008078134987954-1.149401002452578.023756665794281.047079022060643-.313006015294377.06276155433261-.602255364792654.06276155433261-1.141318867194059v-4.26842572345231c0-.484818391660156-.015682532271967-.758345779520823-.06276155433261-1.141362298023523.320649833840434.015287653304767.539497797104559.023322357455982,1.149401002452578.023322357455982h2.49344690671569c.531853970645898,0,.797780955968847-.015678530802688,1.165075503555272-.054679419066815v1.461968709134453c-.359650721124126-.039478627430071-.641299667689964-.054722849903555-1.165075503555272-.054722849903555h-2.032432652640637v1.148962693843714h1.688460461926297c.516175440236111,0,.703622911838465-.007643826655112,1.172719330013933-.054722849905374v1.446290178335403c-.367294547586425-.039000888269584-.633221532911193-.054722849907193-1.172719330013933-.054722849907193h-1.688460461926297v1.313522121061396h2.017149091640022c.593782245388866,0,.937754436105024-.015678530806326,1.274082800357064-.054679419068634v1.46153440080343Z" style="fill:#70b92b; fill-rule:evenodd;"/><path d="M60.823099777453535,60.419916437780557c.031400491656314.281605522844984.086079909344335.422408284268386.203169432852519.578498699002012.187447471605992.234569930426005.516132009397552.367728865199751.914827048640291.367728865199751.601864472086163,0,.961515193213927-.265926992042296.961515193213927-.703622929620906,0-.242604634580857-.12512422745931-.45341789921622-.328293660306372-.547575945720382-.164125114735725-.078001776531892-.359650721125945-.132724626435447-1.172719330015752-.320215533607552-.719301442250071-.156481292231547-.969549897159595-.250205030401048-1.258799239356449-.453374468390393-.492418775038459-.343972199403652-.75834161631974-.867791479329753-.75834161631974-1.501013028231682,0-1.204076421254285.969545753121565-1.96242220077329,2.509559630720105-1.96242220077329.9928722540335,0,1.751218014400365.304927880302785,2.173235410507914.89107040595627.195525606388401.258326596225743.289249342193216.492853095815008.391051212778621.938192860045092l-1.657494278593731.17984708052245c-.093723735801177-.508140749117956-.375372682368834-.718910582923854-.969115588839486-.718910582923854-.477174552959696,0-.828747139305051.257848857054341-.828747139305051.617543018097422,0,.218847968790215.117046092675082.382973087673236.367294547590063.500019183302356q.156481288277064.070401380717158,1.078952163377835.258326596223924c.594220645629321.124689922280595.969159019674407.257848857050703,1.26644306581511.445296333396982.562820153978464.35205033438433.844039066998448.875826183484605.844039066998448,1.594736766406641,0,.586576833984509-.187451746387524,1.086639448119968-.547145898341114,1.438646351678472-.45337445693076.43769593757861-1.141318838364896.664622041345865-2.055755009516361.664622041345865-.664578593725309,0-1.321556791828698-.140802761417945-1.743574187936247-.383407396000621-.390616904456692-.218847968786577-.679866246651727-.554785464042652-.844425669705743-1.000516105772476-.078045205398666-.187490907173924-.117089523504546-.367294556859633-.171768941196206-.726988717904533l1.626093786937417-.156481292231547Z" style="fill:#70b92b; fill-rule:evenodd;"/><path d="M68.702977190047022,61.358065866992547c0,.469096430018908.01571758179125.813068629428017.062796603859169,1.180363186291288h-1.727895657531917c.047079022062462-.367294556863271.062757552474068-.687944398810941.062757552474068-1.180363186291288v-3.940132054856804h-.922470875098952c-.492853083365844,0-.625621137283815.008034704156671-1.180797464796342.05472284991265v-1.492934893251004c.258283158862469.031357061610834.687944381430498.054679419066815,1.165075503551634.054679419066815h3.423999945913238c.547146039154541,0,.860147630948632-.015678530802688,1.219364043758105-.054679419066815v1.492934893251004c-.351572586347174-.039044319099048-.656543889783279-.05472284991265-1.219364043758105-.05472284991265h-.883465608370898v3.940132054856804Z" style="fill:#70b92b; fill-rule:evenodd;"/><path d="M77.521082110913994,59.255231782293777c0,2.063833196432824-1.258408361862166,3.432078167395957-3.15807296058847,3.432078167395957-1.915386559967374,0-3.150429134135265-1.336844478515559-3.150429134135265-3.408712379099597,0-2.063833196431005,1.235042574167892-3.384999144147514,3.158072960593927-3.384999144147514,1.92342126391668,0,3.150429134129809,1.313522121065034,3.150429134129809,3.361633355851154ZM75.895379201463584,59.270953743933205c0-1.266443097807496-.578498684388251-2.032867012314455-1.524726224679398-2.032867012314455-.953480489262802,0-1.540009393876971.774024310328969-1.540009393876971,2.032867012314455,0,1.274086924464427.58652890461417,2.063789765601541,1.540009393876971,2.063789765601541.946227540291147,0,1.524726224679398-.781668136982262,1.524726224679398-2.063789765601541Z" style="fill:#70b92b; fill-rule:evenodd;"/><path d="M41.30298197016964,62.538429053283835c.046644713738715-.34397219940729.062323244146683-.695544794631132.062323244146683-1.156997397998566v-4.228990526853522c0-.422451715101488-.015678530407968-.774067741160252-.062323244146683-1.141362298023523.367294547582787.015287653304767.648900063317342.023322357455982,1.148962664819919.023322357455982h1.712217127118492c1.54761427322228,0,2.400118077717707.742667248716316,2.400118077717707,2.10283408469877,0,1.39156732842639-.891504691773662,2.220314488658914-2.407761904180006,2.220314488658914h-1.235476882486182v1.000516105770657c0,.461452603367434.023756665194014.844469121871953.062757552472249,1.180363186291288h-1.680816635462179ZM44.086116556711204,59.028349109355986c.547098192733756,0,.867748026579648-.304537002808502.867748026579648-.844034813542748s-.304927872604821-.821103333577412-.867748026579648-.821103333577412h-1.165075503551634v1.66513814712016h1.165075503551634Z" style="fill:#70b92b; fill-rule:evenodd;"/><path d="M51.215287655950306,62.538429053283835c-.046640777247376-.24981415289767-.140368449541711-.570463994847159-.382973077996212-1.219364074557234-.250248454907705-.680300572159467-.343972190714339-.860147652678279-.539497797104559-1.031916598212774-.164125114733906-.148446588078514-.359650721125945-.211204142135102-.609464867713541-.211204142135102h-.797390078480021v1.282121628613822c0,.531897414914056.015287652920961.821146764410514.062366674981604,1.180363186291288h-1.680816635462179c.047082861192393-.359216421880774.062757552472249-.59378635230496.062757552472249-1.172285051301515v-4.206102477730383c0-.484774960828872-.015674691279855-.77402431032715-.062757552472249-1.148962693843714.343972190714339.015287653304767.633221532907555.023322357455982,1.165075503549815.023322357455982h2.032432652640637c1.266443065822386,0,2.001466469317165.656587337200108,2.001466469317165,1.782184242752919,0,.555219772371856-.156524719111985.992915709946828-.461452591713169,1.282165059450563-.195525606392039.17984708052245-.359650721124126.265926992038658-.74266722995344.391051222652095.398695039233644.125124230620713.578542115214077.304927880313699.828751099095825.859713344347256.117085563708315.250248461237788.226487829921098.516175453274627.578538155417846,1.360601144315297.085645601020587.218847968786577.179803645145512.413939271784329.374894943213803.828312851901501h-1.829263219793575ZM50.105369309241723,58.73909975985589c.46101828339124,0,.742623799125795-.281214645350701.742623799125795-.726988717908171,0-.43769593757861-.2502484549168-.664578610520039-.735023403496598-.664578610520039h-1.227007870214948v1.391567328428209h1.219407474585751Z" style="fill:#70b92b; fill-rule:evenodd;"/><path d="M58.595141518422679,62.593151903191028c-.33632836425204-.039000888267765-.617543002494131-.054722849907193-1.289765422685377-.054722849907193h-2.462480723386761c-.59422467494187,0-.813072638200538.008078134987954-1.149401002452578.023756665794281.047079022060643-.313006015294377.06276155433261-.602255364792654.06276155433261-1.141318867194059v-4.26842572345231c0-.484818391660156-.015682532271967-.758345779520823-.06276155433261-1.141362298023523.320649833840434.015287653304767.539497797104559.023322357455982,1.149401002452578.023322357455982h2.49344690671569c.531853970645898,0,.797780955968847-.015678530802688,1.165075503555272-.054679419066815v1.461968709134453c-.359650721124126-.039478627430071-.641299667689964-.054722849903555-1.165075503555272-.054722849903555h-2.032432652640637v1.148962693843714h1.688460461926297c.516175440236111,0,.703622911838465-.007643826655112,1.172719330013933-.054722849905374v1.446290178335403c-.367294547586425-.039000888269584-.633221532911193-.054722849907193-1.172719330013933-.054722849907193h-1.688460461926297v1.313522121061396h2.017149091640022c.593782245388866,0,.937754436105024-.015678530806326,1.274082800357064-.054679419068634v1.46153440080343Z" style="fill:#70b92b; fill-rule:evenodd;"/><path d="M60.823099777453535,60.419916437780557c.031400491656314.281605522844984.086079909344335.422408284268386.203169432852519.578498699002012.187447471605992.234569930426005.516132009397552.367728865199751.914827048640291.367728865199751.601864472086163,0,.961515193213927-.265926992042296.961515193213927-.703622929620906,0-.242604634580857-.12512422745931-.45341789921622-.328293660306372-.547575945720382-.164125114735725-.078001776531892-.359650721125945-.132724626435447-1.172719330015752-.320215533607552-.719301442250071-.156481292231547-.969549897159595-.250205030401048-1.258799239356449-.453374468390393-.492418775038459-.343972199403652-.75834161631974-.867791479329753-.75834161631974-1.501013028231682,0-1.204076421254285.969545753121565-1.96242220077329,2.509559630720105-1.96242220077329.9928722540335,0,1.751218014400365.304927880302785,2.173235410507914.89107040595627.195525606388401.258326596225743.289249342193216.492853095815008.391051212778621.938192860045092l-1.657494278593731.17984708052245c-.093723735801177-.508140749117956-.375372682368834-.718910582923854-.969115588839486-.718910582923854-.477174552959696,0-.828747139305051.257848857054341-.828747139305051.617543018097422,0,.218847968790215.117046092675082.382973087673236.367294547590063.500019183302356q.156481288277064.070401380717158,1.078952163377835.258326596223924c.594220645629321.124689922280595.969159019674407.257848857050703,1.26644306581511.445296333396982.562820153978464.35205033438433.844039066998448.875826183484605.844039066998448,1.594736766406641,0,.586576833984509-.187451746387524,1.086639448119968-.547145898341114,1.438646351678472-.45337445693076.43769593757861-1.141318838364896.664622041345865-2.055755009516361.664622041345865-.664578593725309,0-1.321556791828698-.140802761417945-1.743574187936247-.383407396000621-.390616904456692-.218847968786577-.679866246651727-.554785464042652-.844425669705743-1.000516105772476-.078045205398666-.187490907173924-.117089523504546-.367294556859633-.171768941196206-.726988717904533l1.626093786937417-.156481292231547Z" style="fill:#70b92b; fill-rule:evenodd;"/><path d="M68.702977190047022,61.358065866992547c0,.469096430018908.01571758179125.813068629428017.062796603859169,1.180363186291288h-1.727895657531917c.047079022062462-.367294556863271.062757552474068-.687944398810941.062757552474068-1.180363186291288v-3.940132054856804h-.922470875098952c-.492853083365844,0-.625621137283815.008034704156671-1.180797464796342.05472284991265v-1.492934893251004c.258283158862469.031357061610834.687944381430498.054679419066815,1.165075503551634.054679419066815h3.423999945913238c.547146039154541,0,.860147630948632-.015678530802688,1.219364043758105-.054679419066815v1.492934893251004c-.351572586347174-.039044319099048-.656543889783279-.05472284991265-1.219364043758105-.05472284991265h-.883465608370898v3.940132054856804Z" style="fill:#70b92b; fill-rule:evenodd;"/><path d="M77.521082110913994,59.255231782293777c0,2.063833196432824-1.258408361862166,3.432078167395957-3.15807296058847,3.432078167395957-1.915386559967374,0-3.150429134135265-1.336844478515559-3.150429134135265-3.408712379099597,0-2.063833196431005,1.235042574167892-3.384999144147514,3.158072960593927-3.384999144147514,1.92342126391668,0,3.150429134129809,1.313522121065034,3.150429134129809,3.361633355851154ZM75.895379201463584,59.270953743933205c0-1.266443097807496-.578498684388251-2.032867012314455-1.524726224679398-2.032867012314455-.953480489262802,0-1.540009393876971.774024310328969-1.540009393876971,2.032867012314455,0,1.274086924464427.58652890461417,2.063789765601541,1.540009393876971,2.063789765601541.946227540291147,0,1.524726224679398-.781668136982262,1.524726224679398-2.063789765601541Z" style="fill:#70b92b; fill-rule:evenodd;"/></svg>